<?xml version="1.0" encoding="UTF-8"?>
<svg version="1.1" viewBox="0 0 147 132" xmlns="http://www.w3.org/2000/svg">
<title>Group 2</title>
<desc>Created with Sketch.</desc>
<g fill="none" fill-rule="evenodd">
<g transform="translate(-107 -158)">
<g transform="translate(107 159)">
<path d="m92.938 21.234-4.7982 61.115c-0.60537 7.7079-6.9791 13.651-14.64 13.651-7.6606 0-14.035-5.9432-14.64-13.651l-4.7982-61.115c-0.89869-11.446 8.0617-21.234 19.438-21.234 11.376 0 20.336 9.7884 19.438 21.234z" fill="#D3CECC" stroke="#5C4D31" stroke-width="2"/>
<path d="m66.992 27.304c0.10813 1.3764-0.91972 2.5797-2.2961 2.6883-1.3764 0.10813-2.58-0.9199-2.6883-2.2963-0.10813-1.3764 0.91972-2.5797 2.2961-2.6881 1.3764-0.10833 2.58 0.91971 2.6883 2.2961" fill="#29354C"/>
<path d="m82.992 27.304c0.10852 1.3764-0.91974 2.5797-2.2962 2.6883-1.3762 0.10813-2.5798-0.9199-2.6882-2.2963-0.10833-1.3764 0.91974-2.5797 2.2962-2.6881 1.3764-0.10833 2.58 0.91971 2.6882 2.2961" fill="#29354C"/>
<path d="m69.237 40c-0.30374 0-0.60814-0.095565-0.84609-0.2892-0.49664-0.40326-0.52474-1.0753-0.060212-1.5061 0.092771-0.085932 2.3046-2.1042 5.5234-2.2011 2.0338-0.060306 3.9673 0.63813 5.7525 2.0787 0.49976 0.40307 0.5263 1.0797 0.059989 1.5111-0.46631 0.43178-1.2502 0.45509-1.7493 0.051636-3.997-3.2249-7.4043-0.32061-7.7792 0.020616-0.24375 0.22215-0.57201 0.33429-0.90117 0.33429" fill="#29354C"/>
<path d="m96.299 18-1.2987 13.981c14.483 2.0423 28.627 6.1981 42.183 12.395 3.3905 1.5501 7.3917 0.11177 9.0692-3.2373v-2.339e-4c1.7889-3.5709 0.25019-7.9105-3.3659-9.5621-14.954-6.8311-30.576-11.383-46.588-13.577" fill="#55BBBA"/>
<path d="m50.704 18c-2.2648 0.31435-4.5292 0.67035-6.7922 1.0716-18.136 3.2156-32.075 8.4846-39.816 11.891-3.7217 1.6382-5.2008 6.0659-3.204 9.5574 1.7599 3.077 5.6165 4.3221 8.8986 2.8837 7.9687-3.4924 21.308-8.232 37.113-10.984 1.6982-0.29568 3.3974-0.56109 5.096-0.80373l-1.2962-13.617" fill="#55BBBA"/>
<path d="m52.696 45.002-0.003026-0.002203c-11.449 1.9239-20.595 4.9866-26.415 7.3031-3.8437 1.5296-5.4243 5.8832-3.3801 9.3226l0.0065176 0.011236c1.7402 2.9278 5.5225 4.1459 8.7943 2.8432 4.8267-1.9219 12.545-4.5339 22.301-6.2692l-1.3044-13.209" fill="#55BBBA"/>
<path d="m94.307 45-1.3068 13.086c7.602 1.3306 15.049 3.4646 22.263 6.3809 3.3855 1.3688 7.3227 0.014404 8.984-3.0698 1.8055-3.3524 0.24781-7.4584-3.4314-8.9468-8.5713-3.4672-17.442-5.9604-26.509-7.4505" fill="#55BBBA"/>
<path d="m54.787 71c-2.4977 0.71177-4.7096 1.5016-6.5812 2.2583-3.7114 1.4999-5.3166 6.3197-3.3789 10.124l8.564e-4 0.0018918c1.5398 3.0233 4.8365 4.3782 7.7851 3.1838 0.99814-0.4046 2.132-0.82646 3.3871-1.2365l-1.2129-14.332" fill="#55BBBA"/>
<path d="m92.214 71-1.2139 14.287c1.1009 0.37125 2.2116 0.7884 3.33 1.2559 3.0605 1.279 6.504-0.20716 7.9786-3.426 1.707-3.7252 0.134-8.2882-3.4089-9.7658-2.1966-0.91599-4.4277-1.6997-6.6858-2.3508" fill="#55BBBA"/>
<path d="m88 116c0 7.732-6.2683 14-14 14-7.732 0-14-6.268-14-14s6.268-14 14-14c7.7317 0 14 6.268 14 14" fill="#D3CECC" stroke="#5C4D31" stroke-width="2"/>
</g>
</g>
</g>
</svg>
