<svg xmlns="http://www.w3.org/2000/svg" viewBox="0 0 147 132"><g fill="none" fill-rule="evenodd"><path fill="#D3CECC" stroke="#5C4D31" stroke-width="2" d="M92.938 22.234 88.14 83.349C87.534 91.057 81.16 97 73.5 97s-14.035-5.943-14.64-13.651l-4.798-61.115C53.162 10.788 62.123 1 73.5 1c11.376 0 20.336 9.788 19.438 21.234z"/><path fill="#29354C" d="M66.992 28.304a2.5 2.5 0 1 1-4.985.392 2.5 2.5 0 0 1 4.985-.392M82.992 28.304a2.5 2.5 0 1 1-4.985.392 2.5 2.5 0 0 1 4.985-.392M69.237 41c-.304 0-.608-.096-.846-.29-.497-.402-.525-1.075-.06-1.505.092-.086 2.304-2.104 5.523-2.201 2.034-.06 3.967.638 5.753 2.078.5.403.526 1.08.06 1.511-.467.432-1.25.455-1.75.052-3.997-3.225-7.404-.32-7.779.02a1.339 1.339 0 0 1-.901.335"/><path fill="#55BBBA" d="M96.299 19 95 32.981c14.483 2.042 28.627 6.198 42.183 12.395 3.39 1.55 7.392.112 9.07-3.237 1.788-3.571.25-7.911-3.366-9.563C127.933 25.746 112.31 21.193 96.299 19M50.704 19c-2.265.314-4.53.67-6.792 1.072-18.136 3.215-32.075 8.484-39.816 11.89C.374 33.602-1.105 38.03.892 41.52c1.76 3.077 5.616 4.322 8.898 2.884 7.97-3.493 21.308-8.232 37.113-10.984 1.699-.296 3.398-.561 5.096-.804l-1.296-13.617M52.696 46.002 52.693 46c-11.449 1.924-20.595 4.986-26.415 7.303-3.844 1.53-5.424 5.883-3.38 9.322l.006.012c1.74 2.928 5.523 4.146 8.795 2.843 4.826-1.922 12.545-4.534 22.3-6.27l-1.304-13.208M94.307 46 93 59.086a109.907 109.907 0 0 1 22.263 6.38c3.386 1.37 7.323.015 8.984-3.069 1.806-3.352.248-7.458-3.431-8.947A124.43 124.43 0 0 0 94.306 46M54.787 72a65.469 65.469 0 0 0-6.581 2.258c-3.712 1.5-5.317 6.32-3.38 10.124l.002.002c1.54 3.023 4.836 4.378 7.785 3.184A52.091 52.091 0 0 1 56 86.331L54.787 72M92.214 72 91 86.287c1.101.371 2.212.788 3.33 1.256 3.06 1.279 6.504-.207 7.979-3.426 1.707-3.725.134-8.288-3.41-9.766a61.99 61.99 0 0 0-6.685-2.35"/><path fill="#D3CECC" stroke="#5C4D31" stroke-width="2" d="M88 117c0 7.732-6.268 14-14 14s-14-6.268-14-14 6.268-14 14-14 14 6.268 14 14"/></g></svg>