<svg xmlns="http://www.w3.org/2000/svg" width="70" height="61"><g fill="none" fill-rule="evenodd" stroke="#FFF" stroke-linecap="round" stroke-linejoin="round" stroke-width="4"><path d="M27.082 38.065a11.045 11.045 0 0 1-3.27-7.881A11.17 11.17 0 0 1 34.999 18.99c3.065 0 5.887 1.24 7.884 3.27m3.095 9.908a11.165 11.165 0 0 1-8.97 8.987"/><path d="M16.1 49.045c-5.61-4.406-10.363-10.84-13.807-18.863 3.48-8.058 8.263-14.528 13.91-18.97 5.61-4.44 12.085-6.851 18.796-6.851 6.75 0 13.22 2.446 18.866 6.919m7.468 7.777c2.432 3.231 4.571 6.962 6.37 11.123C60.75 46.292 48.46 55.998 35 55.998a28.23 28.23 0 0 1-8.953-1.46M62.886 2.293 7.114 58.066"/></g></svg>