<svg xmlns="http://www.w3.org/2000/svg" xmlns:xlink="http://www.w3.org/1999/xlink" xmlns:serif="http://www.serif.com/" viewBox="0 0 48 60" version="1.1" xml:space="preserve" style="" x="0px" y="0px" fill-rule="evenodd" clip-rule="evenodd" stroke-linejoin="round" stroke-miterlimit="2"><path d="M29.342,2.93L29.342,9.541C29.342,11.145 29.979,12.683 31.112,13.817C32.247,14.951 33.785,15.588 35.389,15.588L42,15.588C42.864,15.588 43.565,14.887 43.565,14.023C43.565,13.159 42.864,12.458 42,12.458L35.389,12.458C34.615,12.458 33.873,12.151 33.326,11.603C32.779,11.057 32.472,10.315 32.472,9.541C32.472,9.541 32.472,2.93 32.472,2.93C32.472,2.066 31.771,1.365 30.907,1.365C30.043,1.365 29.342,2.066 29.342,2.93Z"/><path d="M43.446,13.424C43.37,13.239 43.257,13.066 43.107,12.916L32.014,1.823C31.864,1.673 31.691,1.56 31.506,1.484C31.321,1.407 31.119,1.365 30.907,1.365L10,1.365C8.524,1.365 7.109,1.951 6.065,2.994C5.021,4.039 4.435,5.454 4.435,6.93L4.435,41C4.435,42.476 5.021,43.891 6.065,44.935C7.109,45.979 8.524,46.565 10,46.565L38,46.565C39.476,46.565 40.891,45.979 41.935,44.935C42.979,43.891 43.565,42.476 43.565,41L43.565,14.023C43.565,13.811 43.523,13.609 43.446,13.424ZM30.259,4.495L10,4.495C9.354,4.495 8.735,4.751 8.279,5.208C7.821,5.665 7.565,6.284 7.565,6.93L7.565,41C7.565,41.646 7.821,42.264 8.278,42.721C8.278,42.721 8.279,42.722 8.279,42.722C8.736,43.179 9.354,43.435 10,43.435L38,43.435C38.646,43.435 39.264,43.179 39.721,42.722C39.721,42.722 39.722,42.721 39.722,42.721C40.179,42.264 40.435,41.646 40.435,41L40.435,14.671L30.259,4.495Z"/><path d="M14,13.565L24,13.565C24.864,13.565 25.565,12.864 25.565,12C25.565,11.136 24.864,10.435 24,10.435L14,10.435C13.136,10.435 12.435,11.136 12.435,12C12.435,12.864 13.136,13.565 14,13.565Z"/><path d="M14,21.565L34,21.565C34.864,21.565 35.565,20.864 35.565,20C35.565,19.136 34.864,18.435 34,18.435L14,18.435C13.136,18.435 12.435,19.136 12.435,20C12.435,20.864 13.136,21.565 14,21.565Z"/><path d="M14,29.565L34,29.565C34.864,29.565 35.565,28.864 35.565,28C35.565,27.136 34.864,26.435 34,26.435L14,26.435C13.136,26.435 12.435,27.136 12.435,28C12.435,28.864 13.136,29.565 14,29.565Z"/><path d="M14,37.565L34,37.565C34.864,37.565 35.565,36.864 35.565,36C35.565,35.136 34.864,34.435 34,34.435L14,34.435C13.136,34.435 12.435,35.136 12.435,36C12.435,36.864 13.136,37.565 14,37.565Z"/></svg>