<svg xmlns="http://www.w3.org/2000/svg" xmlns:svg="http://www.w3.org/2000/svg" viewBox="0 0 14.287499 17.85937375" version="1.1" x="0px" y="0px"><path style="color:#000000;" d="m 0.99230156,1.1906252 a 0.26458331,0.26458331 0 0 0 -0.2645833,0.2645833 0.26458331,0.26458331 0 0 0 0.2645833,0.2645833 H 2.683153 l 2.2866824,8.5353962 a 0.26460977,0.26460977 0 0 0 0.2557991,0.195853 H 11.972509 A 0.26458331,0.26458331 0 0 0 12.237092,10.186458 0.26458331,0.26458331 0 0 0 11.972509,9.9218745 H 5.4287234 L 5.1806765,8.9958329 h 6.8383405 a 0.26460977,0.26460977 0 0 0 0.255799,-0.1958536 l 1.27589,-4.7624996 A 0.26460977,0.26460977 0 0 0 13.295425,3.7041667 H 3.762674 L 3.141525,1.3864787 A 0.26460977,0.26460977 0 0 0 2.8857259,1.1906252 Z M 5.6225095,5.2916665 H 11.046467 A 0.26458331,0.26458331 0 0 1 11.31105,5.5562498 0.26458331,0.26458331 0 0 1 11.046467,5.8208332 H 5.6225095 A 0.26458331,0.26458331 0 0 1 5.3579262,5.5562498 0.26458331,0.26458331 0 0 1 5.6225095,5.2916665 Z M 6.1516761,6.8791664 H 10.517301 A 0.26458331,0.26458331 0 0 1 10.781884,7.1437497 0.26458331,0.26458331 0 0 1 10.517301,7.408333 H 6.1516761 A 0.26458331,0.26458331 0 0 1 5.8870928,7.1437497 0.26458331,0.26458331 0 0 1 6.1516761,6.8791664 Z M 5.9087966,10.980208 c -0.5813663,0 -1.0583333,0.476966 -1.0583333,1.058333 0,0.581367 0.476967,1.058333 1.0583333,1.058333 0.5813662,0 1.0583332,-0.476966 1.0583332,-1.058333 0,-0.581367 -0.476967,-1.058333 -1.0583332,-1.058333 z m 5.2570424,0 c -0.581366,0 -1.058333,0.476966 -1.058333,1.058333 0,0.581367 0.476967,1.058333 1.058333,1.058333 0.581366,0 1.058333,-0.476966 1.058333,-1.058333 0,-0.581367 -0.476967,-1.058333 -1.058333,-1.058333 z" fill="#000000" stroke="none"/></svg>