<svg xmlns="http://www.w3.org/2000/svg" width="14" height="14"><defs><linearGradient id="a" x1="7.121%" x2="87.212%" y1="42.219%" y2="56.749%"><stop offset="0%" stop-color="#C285FF"/><stop offset="100%" stop-color="#6972D1"/></linearGradient><linearGradient id="b" x1="4.636%" x2="100.236%" y1="50%" y2="50%"><stop offset="0%" stop-color="#C36BFF"/><stop offset="100%" stop-color="#5449B7"/></linearGradient><linearGradient id="c" x1="50.014%" x2="50.014%" y1="3.224%" y2="101.164%"><stop offset="0%" stop-color="#F24D55"/><stop offset="100%" stop-color="#CE2E35"/></linearGradient><linearGradient id="d" x1="7.121%" x2="87.212%" y1="48.161%" y2="51.595%"><stop offset="0%" stop-color="#C285FF"/><stop offset="100%" stop-color="#6972D1"/></linearGradient><linearGradient id="e" x1="50.014%" x2="50.014%" y1="3.224%" y2="101.164%"><stop offset="0%" stop-color="#F24D55"/><stop offset="100%" stop-color="#CE2E35"/></linearGradient><linearGradient id="f" x1="50.014%" x2="50.014%" y1="3.224%" y2="101.164%"><stop offset="0%" stop-color="#F24D55"/><stop offset="100%" stop-color="#CE2E35"/></linearGradient><linearGradient id="g" x1="50.014%" x2="50.014%" y1="3.224%" y2="101.164%"><stop offset="0%" stop-color="#F24D55"/><stop offset="100%" stop-color="#CE2E35"/></linearGradient></defs><g fill="none"><path fill="url(#a)" d="M.669 6.733h8.955v4.925H.669z" transform="translate(1.842 1.8)"/><path fill="url(#b)" d="M.669 6.733h8.955V7.93H.669z" transform="translate(1.842 1.8)"/><path fill="url(#c)" d="M4.11 6.734h2.074v4.925H4.11z" transform="translate(1.842 1.8)"/><path fill="url(#d)" d="M0 3.982h10.293v2.752H0z" transform="translate(1.842 1.8)"/><path fill="url(#e)" d="M3.604 3.982h3.084v2.752H3.604z" transform="translate(1.842 1.8)"/><path fill="url(#f)" d="M5.469 3.981H3.427c-1.125-.003-2.034-.895-2.033-1.994C1.396.89 2.31 0 3.434 0s2.035.892 2.035 1.99v1.991zM3.427.729c-.7.02-1.255.58-1.255 1.265 0 .683.555 1.243 1.255 1.264h1.296V1.99C4.72 1.293 4.14.73 3.427.73z" transform="translate(1.842 1.8)"/><path fill="url(#g)" d="M7.13 3.981H5.468V2.355A1.63 1.63 0 0 1 6.495.85a1.694 1.694 0 0 1 1.815.352 1.6 1.6 0 0 1 .362 1.774 1.667 1.667 0 0 1-1.539 1.005H7.13zm-.923-.729h.922a.91.91 0 0 0 .922-.9.912.912 0 0 0-.922-.902.912.912 0 0 0-.922.901v.901z" transform="translate(1.842 1.8)"/><path fill="#C63D43" d="M5.952 8.534h2.074v1.199H5.952z"/></g></svg>