<svg xmlns="http://www.w3.org/2000/svg" data-name="Layer 1" viewBox="0 0 100 125"><g data-name="Group"><path d="M34.67 45.67a3 3 0 0 0-4.24-4.24l-11 11a19.91 19.91 0 1 0 28.13 28.16l11-11a3 3 0 0 0-4.24-4.24l-11 11a13.91 13.91 0 0 1-19.67-19.67ZM80.59 19.41a19.93 19.93 0 0 0-28.15 0l-11 11a3 3 0 1 0 4.24 4.24l11-11a13.91 13.91 0 0 1 19.67 19.67l-11 11a3 3 0 1 0 4.24 4.24l11-11a19.93 19.93 0 0 0 0-28.15Z" data-name="Path"/><path d="m41.06 63.18 22.12-22.12a3 3 0 0 0-4.24-4.24L36.82 58.94a3 3 0 1 0 4.24 4.24Z" data-name="Path"/></g></svg>