<svg xmlns="http://www.w3.org/2000/svg" data-name="Layer 1" viewBox="0 0 100 125" x="0px" y="0px"><title>04</title><g data-name="Group"><path data-name="Path" d="M34.67,45.67a3,3,0,0,0-4.24-4.24l-11,11A19.91,19.91,0,1,0,47.56,80.59l11-11a3,3,0,0,0-4.24-4.24l-11,11A13.91,13.91,0,0,1,23.65,56.68Z"/><path data-name="Path" d="M80.59,19.41a19.93,19.93,0,0,0-28.15,0l-11,11a3,3,0,1,0,4.24,4.24l11-11A13.91,13.91,0,0,1,76.35,43.32l-11,11a3,3,0,1,0,4.24,4.24l11-11A19.93,19.93,0,0,0,80.59,19.41Z"/><path data-name="Path" d="M41.06,63.18,63.18,41.06a3,3,0,0,0-4.24-4.24L36.82,58.94a3,3,0,1,0,4.24,4.24Z"/></g></svg>