<svg width="225" height="215" viewBox="0 0 225 215" fill="none" xmlns="http://www.w3.org/2000/svg">
<g clip-path="url(#clip0_50_2087)">
<path d="M187.533 215C186.935 215 186.317 214.98 185.629 214.931C184.912 214.98 184.274 215 183.646 215C174.546 215 165.735 210.992 158.848 203.87L148.213 209.296C146.817 210.189 145.312 210.209 142.98 210.239C141.724 210.258 139.96 210.268 137.767 210.288C133.272 211.359 128.627 212.133 123.942 212.599C123.304 212.669 122.657 212.728 122.019 212.768C119.168 213.016 116.248 213.145 113.327 213.145C112.57 213.145 111.832 213.125 111.095 213.105L110.457 213.085C107.686 213.016 104.925 212.828 102.234 212.55C100.898 212.411 99.5227 212.242 98.0276 212.024C94.9178 211.568 91.8679 210.992 88.9275 210.288L69.0928 210.258C64.6574 210.258 60.3714 210.239 56.3347 210.229C52.587 214.236 41.354 214.445 39.0815 214.445C30.6293 214.445 24.7984 212.282 21.7385 208.007C21.4495 207.61 21.1803 207.173 20.9312 206.707C20.6321 206.142 20.4328 205.537 20.3331 204.902C20.3331 204.902 20.1438 203.731 19.8846 201.936C19.8846 201.866 19.8647 201.797 19.8547 201.727C19.6354 200.18 19.3364 197.849 19.0872 195.309C19.0374 194.754 18.9876 194.208 18.9477 193.663C18.9078 193.157 18.8679 192.641 18.838 192.125L6.83752 131.049C6.76775 130.672 6.72788 130.296 6.72788 129.909C6.72788 129.194 6.90729 126.407 9.53863 124.889C9.10007 122.221 8.77116 119.394 8.54191 116.299C8.3625 113.888 8.26283 111.438 8.25286 108.998C3.45863 107.649 -0.00996399 102.6 -0.00996399 96.3899V65.3114C-0.00996399 58.0403 4.7444 52.3563 10.8144 52.3563H24.6988C26.2736 49.8863 27.9282 47.5353 29.6226 45.3331C31.3369 43.0813 33.1211 40.9188 34.9251 38.9151C41.4138 31.6637 48.9191 25.3449 57.2019 20.1271C65.0959 15.1573 73.5581 11.2787 82.3791 8.58056C86.7248 5.18802 91.9875 2.68825 97.6588 1.31933C100.161 0.714224 102.583 0.317436 104.845 0.1488C106.061 0.0595228 107.287 4.52064e-06 108.473 -0.0198349C108.852 -0.0198349 109.231 -0.0297546 109.61 -0.0297546C119.367 -0.0297546 128.906 2.30138 136.561 6.54702C142.332 7.83658 148.023 9.64197 153.515 11.9136C156.027 12.9452 158.568 14.1058 161.03 15.3557C161.08 15.3855 161.13 15.4053 161.18 15.4351C161.858 15.7724 162.535 16.1295 163.193 16.4866C179.858 25.4441 193.773 38.7167 203.521 54.9354C215.681 60.1829 223.704 72.2156 223.704 85.5477C223.704 92.1145 221.82 98.3739 218.242 103.8C218.322 105.407 218.352 106.994 218.352 108.532C218.352 117.697 217.156 126.784 214.813 135.563C219.169 141.723 222.209 149.331 223.575 157.485C223.874 157.833 224.133 158.22 224.342 158.646C225.219 160.382 225.179 162.406 224.302 164.072C224.372 165.243 224.402 166.393 224.402 167.534C224.402 193.673 207.856 214.94 187.513 214.94L187.533 215Z" fill="white"/>
<path d="M213.159 108.571C213.159 117.846 211.873 126.824 209.471 135.335C207.826 141.158 205.654 146.772 203.002 152.099C198.537 161.146 192.696 169.409 185.769 176.621C185.56 176.849 185.35 177.067 185.131 177.285C182.928 179.547 180.606 181.709 178.194 183.753C175.114 186.372 171.875 188.782 168.486 190.994C166.652 192.195 164.768 193.345 162.854 194.426C161.768 195.042 160.672 195.637 159.565 196.202C158.549 196.728 157.532 197.234 156.485 197.72C152.967 199.386 149.329 200.845 145.591 202.094C143.199 202.898 140.757 203.602 138.285 204.217C138.126 204.257 137.976 204.297 137.817 204.336C133.361 205.427 128.786 206.211 124.112 206.677C123.514 206.737 122.916 206.796 122.318 206.836C119.607 207.074 116.866 207.193 114.095 207.193C113.168 207.193 112.261 207.163 111.354 207.144C108.752 207.074 106.171 206.906 103.619 206.638C102.284 206.499 100.958 206.33 99.6423 206.142C96.5126 205.685 93.4227 205.09 90.3927 204.346C90.2233 204.307 90.0439 204.267 89.8744 204.217C86.1865 203.305 82.5784 202.174 79.0699 200.854C78.9703 200.815 78.8706 200.785 78.7809 200.745C75.402 199.466 72.1029 197.998 68.9134 196.361C68.106 195.954 67.2987 195.528 66.5013 195.091C66.1026 194.873 65.7039 194.655 65.3152 194.426C64.767 194.119 64.2288 193.802 63.6806 193.474C61.5675 192.234 59.5043 190.925 57.5009 189.526C55.936 188.445 54.4011 187.314 52.906 186.134C51.999 185.429 51.1119 184.715 50.2348 183.971C45.1914 179.755 40.5765 175.024 36.5 169.885C29.1043 160.64 23.3432 150.046 19.6653 138.529C18.8281 135.92 18.0905 133.262 17.4825 130.563C17.4227 130.325 17.3729 130.077 17.323 129.839C16.8944 127.954 16.5356 126.05 16.2366 124.116C15.7881 121.407 15.4791 118.67 15.2698 115.882C15.0904 113.472 15.0007 111.031 15.0007 108.571C15.0007 103.294 15.4093 98.106 16.2266 93.0569C16.8247 89.2874 17.622 85.5973 18.6387 81.9964C20.8315 74.1698 23.9612 66.7498 27.9182 59.8457C30.091 56.0563 32.4931 52.4257 35.1444 48.9737C36.7292 46.8905 38.3937 44.8669 40.148 42.9226C46.2778 36.078 53.3545 30.1064 61.1688 25.1862C68.8037 20.3751 77.1363 16.5659 85.9972 13.9769C87.6517 13.4809 89.3162 13.0345 91.0107 12.6377C92.0174 12.3997 93.034 12.1715 94.0507 11.9731H94.0606C94.9477 11.7846 95.8348 11.616 96.7319 11.4573C97.8781 11.2589 99.0243 11.0704 100.181 10.9216C100.789 10.8323 101.406 10.753 102.014 10.6836H102.024C105.991 10.1975 110.008 9.94949 114.095 9.94949C116.925 9.94949 119.726 10.0685 122.497 10.3066H122.507C123.454 10.376 124.391 10.4752 125.318 10.5844C128.667 10.9514 131.966 11.497 135.195 12.1913C135.195 12.1913 135.202 12.1947 135.215 12.2013C141.026 13.4512 146.638 15.2169 152.01 17.4389C154.462 18.4408 156.854 19.5419 159.196 20.7421C159.206 20.7421 159.216 20.7421 159.216 20.7521C159.854 21.0695 160.482 21.3968 161.1 21.7341C192.098 38.3992 213.159 71.0351 213.159 108.571Z" fill="#B7B8FB"/>
<path d="M109.37 5.96176C108.264 5.9816 107.168 6.0312 106.081 6.11056C103.988 6.26927 101.895 6.6363 99.8516 7.13229C88.5787 9.86021 77.6048 18.3515 77.6845 30.771C77.7044 34.2627 78.2825 37.7247 78.9703 41.147C80.2162 47.3568 82.4787 53.3383 83.5851 59.5679C83.8343 60.9964 84.0237 62.5141 83.5153 63.8731C82.4887 66.5911 79.2394 67.6029 76.4187 68.3667C71.4849 69.7158 66.3518 71.5807 63.2121 75.5982C60.81 78.6634 59.8631 82.6511 59.8133 86.5396C59.7335 91.8665 61.2286 97.2133 64.0693 101.727C65.7438 104.395 68.0163 106.865 71.0065 107.877C74.5149 109.067 78.3324 108.056 81.9405 107.202C108.523 100.854 136.342 102.719 163.482 105.933C168.087 100.884 171.426 94.6242 172.891 87.9681C174.257 81.7583 173.649 75.8462 169.423 70.8268C166.383 67.216 162.216 64.6964 157.891 62.7819C153.974 61.0559 152.778 59.1017 152.907 54.8065C153.186 45.3926 152.857 35.2547 148.721 26.6047C141.674 11.8342 124.999 5.68401 109.38 5.97168L109.37 5.96176Z" fill="#F34919"/>
<path d="M101.596 69.8547L102.134 90.6365L130.441 89.3668L132.185 55.0644L101.596 69.8547Z" fill="#FFB3DA"/>
<path d="M101.745 73.1679L101.875 81.0739C105.643 81.5302 108.982 81.2029 111.872 80.3498C120.783 77.731 128.109 71.6898 129.375 62.0776C121.441 67.9303 111.832 71.7791 101.755 73.1679H101.745Z" fill="#0B0A10"/>
<path d="M94.4494 73.1381C107.676 80.3795 127.162 75.7867 131.268 59.2703C133.042 52.1083 134.009 46.4739 134.538 42.3969C134.846 40.0261 134.986 38.1711 135.076 36.8617C135.375 35.0761 135.514 33.2311 135.425 31.3662C134.787 17.2206 122.677 6.26927 108.384 6.90413C102.503 7.17197 97.1903 9.34438 92.9842 12.8064C89.376 15.7823 86.6052 19.7105 85.0602 24.1049C83.2861 29.1541 83.7047 34.3421 83.8841 39.5698C84.0237 43.4881 84.1831 47.3766 84.6815 51.275C85.5486 58.1097 86.9839 66.8192 92.426 71.6898C93.044 72.2453 93.7218 72.7413 94.4494 73.1381Z" fill="#FFB3DA"/>
<path d="M108.872 46.5037C108.932 47.7635 109.859 48.7455 110.955 48.6959C112.051 48.6463 112.889 47.5849 112.839 46.335C112.779 45.0752 111.852 44.0932 110.756 44.1428C109.659 44.1924 108.822 45.2538 108.872 46.5037Z" fill="#0B0A10"/>
<path d="M88.768 47.3964C88.8279 48.6562 89.7548 49.6383 90.8512 49.5887C91.9476 49.5391 92.7848 48.4777 92.735 47.2278C92.6852 45.9779 91.7482 44.9859 90.6519 45.0355C89.5555 45.0851 88.7182 46.1465 88.768 47.3964Z" fill="#0B0A10"/>
<path d="M96.5824 43.6666C96.6023 48.4876 96.6521 53.3086 96.7319 58.1197C98.0475 57.7923 99.3134 57.2765 100.45 56.6019" stroke="#0B0A10" stroke-width="0.49" stroke-linecap="round" stroke-linejoin="round"/>
<path d="M99.0542 60.7087C100.46 63.0001 103.699 62.0478 103.539 59.3298" stroke="#0B0A10" stroke-width="0.45" stroke-linecap="round" stroke-linejoin="round"/>
<path d="M86.964 39.6888C86.7746 40.0657 86.6052 40.5121 86.7746 40.899C86.8842 41.1668 87.1235 41.3553 87.3726 41.4942C88.18 41.9307 89.1667 41.9406 90.0538 41.7223C90.6917 41.5636 91.3097 41.2958 91.7582 40.8296C92.2067 40.3633 92.446 39.659 92.2665 39.044C92.0473 38.31 91.2698 37.8437 90.5023 37.8041C89.2365 37.7445 87.5421 38.5778 86.964 39.6987V39.6888Z" fill="#F34919"/>
<path d="M114.204 38.31C114.474 38.6373 114.733 39.0341 114.663 39.4507C114.613 39.7285 114.424 39.9765 114.204 40.165C113.517 40.7701 112.56 40.9982 111.643 40.9784C110.995 40.9784 110.317 40.8395 109.779 40.4824C109.241 40.1253 108.842 39.5003 108.882 38.8456C108.932 38.0818 109.59 37.4569 110.327 37.2486C111.543 36.9113 113.387 37.3378 114.204 38.31Z" fill="#F34919"/>
<path d="M139.112 40.6808C141.076 40.899 142.83 42.2183 143.787 43.9444C144.744 45.6704 144.933 47.7436 144.565 49.678C143.717 54.0526 139.79 57.6534 135.345 58.1494C134.219 58.2784 133.032 58.2089 132.046 57.6633C130.72 56.9392 129.933 55.4612 129.743 53.9633C129.554 52.4654 129.873 50.9576 130.301 49.5093C131.517 45.4026 133.79 40.0856 139.122 40.6709L139.112 40.6808Z" fill="#FFB3DA"/>
<path d="M139.78 46.712C138.694 47.0492 137.767 47.7734 137.009 48.6166C136.252 49.4597 135.664 50.4319 135.076 51.404" stroke="#0B0A10" stroke-width="0.55" stroke-linecap="round" stroke-linejoin="round"/>
<path d="M101.954 82.304C101.954 82.304 101.944 82.304 101.935 82.3136H101.954V82.304Z" fill="#FAF3EA"/>
<path d="M185.769 176.621C185.56 176.849 185.35 177.067 185.131 177.285C182.928 179.547 180.606 181.709 178.194 183.753C175.114 186.372 171.875 188.782 168.486 190.994C166.652 192.195 164.768 193.345 162.854 194.427C161.768 195.042 160.672 195.637 159.565 196.202C158.549 196.728 157.532 197.234 156.485 197.72C152.967 199.386 149.329 200.845 145.591 202.094C143.199 202.898 140.757 203.602 138.285 204.217C138.126 204.257 137.976 204.297 137.817 204.336C133.361 205.428 128.786 206.211 124.112 206.677C123.514 206.737 122.916 206.796 122.318 206.836L99.6423 206.142C96.5126 205.685 93.4227 205.09 90.3927 204.346C90.2233 204.307 90.0439 204.267 89.8744 204.217C86.1865 203.305 82.5784 202.174 79.07 200.855C78.9703 200.815 78.8706 200.785 78.7809 200.745C75.402 199.466 72.1029 197.998 68.9134 196.361C68.106 195.954 67.2987 195.528 66.5013 195.091C66.1026 194.873 65.7039 194.655 65.3152 194.427C64.767 194.119 64.2288 193.802 63.6806 193.474C61.5675 192.234 59.5043 190.925 57.5009 189.526C56.3248 169.459 55.4676 135.186 62.0758 120.842C64.169 116.289 67.2389 111.894 70.7772 107.798C83.1166 93.4736 101.008 82.8595 101.915 82.3238C101.915 82.3238 101.921 82.3205 101.935 82.3139C102.024 82.5321 105.393 89.9521 114.952 89.5354C124.66 89.099 130.989 78.2964 130.989 78.2964H130.999L135.624 82.0758C135.624 82.0758 148.163 90.9936 159.934 101.528C161.1 102.57 162.366 103.959 163.702 105.645C172.443 116.725 183.865 140.91 185.669 166.741C185.919 170.282 185.929 173.575 185.769 176.621Z" fill="#FAF3EA"/>
<path d="M135.853 24.0553C134.986 21.0596 133.66 18.1531 131.657 15.7426C130.222 14.0265 128.467 12.5881 126.594 11.368C119.318 6.60655 110.227 5.11859 101.755 7.10254C101.755 7.13229 101.755 7.15213 101.755 7.18189C95.5856 9.66182 89.4358 12.479 85.7081 17.9646C84.3625 19.9387 83.4057 22.1508 82.5784 24.3827C80.7444 29.3227 80.3358 34.729 81.2926 39.907C89.6452 30.1758 96.5624 19.2244 101.775 7.50924C102.024 15.3061 104.925 23.0038 109.889 29.035C114.952 35.1753 122.118 39.5599 129.913 41.276C130.291 43.002 130.999 44.4602 131.378 46.1862C134.408 42.8929 136.322 38.5877 136.84 34.1437C137.229 30.7611 136.81 27.309 135.863 24.0355L135.853 24.0553Z" fill="#F34919"/>
<path d="M164.977 194.436L145.81 204.227C145.81 204.227 142.79 204.316 137.817 204.346C130.132 204.376 117.673 204.386 103.858 204.366C99.4728 204.366 94.9477 204.366 90.3927 204.356C83.4854 204.356 76.5183 204.336 69.8602 204.326C63.1922 204.316 56.843 204.297 51.2016 204.277C37.5864 204.257 28.0677 204.227 28.0677 204.227L41.9819 194.436H164.977Z" fill="#2B60FF"/>
<path opacity="0.33" d="M164.977 194.436L145.81 204.227C145.81 204.227 142.79 204.316 137.817 204.346C130.132 204.376 117.673 204.386 103.858 204.366C99.4728 204.366 94.9477 204.366 90.3927 204.356C83.4854 204.356 76.5183 204.336 69.8602 204.326C63.1922 204.316 56.843 204.297 51.2016 204.277C37.5864 204.257 28.0677 204.227 28.0677 204.227L41.9819 194.436H164.977Z" fill="#0B0A10"/>
<path d="M13.4856 129.928L28.0777 204.217H145.82L138.016 129.591C138.016 129.591 13.4856 129.591 13.4856 129.928Z" fill="#0B0A10"/>
<path d="M77.6546 175.599C82.6419 175.599 86.6849 171.575 86.6849 166.612C86.6849 161.648 82.6419 157.624 77.6546 157.624C72.6673 157.624 68.6243 161.648 68.6243 166.612C68.6243 171.575 72.6673 175.599 77.6546 175.599Z" fill="#FAF3EA"/>
<path d="M53.7333 201.043C53.7333 201.043 53.7333 201.122 53.7333 201.152C53.6735 201.797 53.6137 202.412 53.5439 202.977C53.4642 203.563 53.3744 204.098 53.2847 204.555C53.1253 205.358 52.9359 205.943 52.7266 206.201C51.3411 207.977 31.9948 211.082 27.3799 204.555C27.2404 204.376 27.1208 204.178 27.0211 203.979C27.0211 203.979 26.8417 202.858 26.5925 201.132C26.5925 201.112 26.5925 201.073 26.5925 201.053C26.3533 199.366 26.0643 197.125 25.845 194.784C25.7952 194.268 25.7453 193.752 25.7054 193.236C25.2968 188.187 25.2968 183.138 26.8317 182.553C28.7056 181.828 30.9183 188.088 32.3935 193.236C32.9716 195.25 33.44 197.105 33.7191 198.285C33.9284 199.128 34.038 199.644 34.038 199.644C34.038 199.644 33.9982 199.168 33.9483 198.375C33.8786 197.204 33.7689 195.329 33.7291 193.246C33.5995 188.088 33.8088 181.65 35.563 181.352C37.4369 181.025 38.9818 188.058 39.8489 193.246C40.3573 196.252 40.6463 198.642 40.6463 198.642C40.6463 198.642 40.6862 196.262 40.8656 193.246C41.1646 188.008 41.8822 180.846 43.487 180.846C45.0917 180.846 46.4373 187.82 47.2944 193.246C47.8327 196.708 48.1616 199.545 48.1616 199.545C48.1616 199.545 48.8095 196.381 49.6866 193.246C50.5936 190.042 51.7598 186.858 52.7365 187.106C53.4841 187.304 53.8628 189.963 53.9725 193.246C54.0522 195.766 53.9725 198.642 53.7532 201.063L53.7333 201.043Z" fill="#FFB3DA"/>
<path d="M184.413 209.038C202.359 209.038 216.907 190.478 216.907 167.584C216.907 144.689 202.359 126.129 184.413 126.129C166.468 126.129 151.92 144.689 151.92 167.584C151.92 190.478 166.468 209.038 184.413 209.038Z" fill="#2B60FF"/>
<path d="M188.301 209.038C205.371 209.038 219.209 190.478 219.209 167.584C219.209 144.689 205.371 126.129 188.301 126.129C171.23 126.129 157.392 144.689 157.392 167.584C157.392 190.478 171.23 209.038 188.301 209.038Z" fill="#F34919"/>
<path d="M188.301 201.053C202.079 201.053 213.249 186.068 213.249 167.584C213.249 149.099 202.079 134.115 188.301 134.115C174.522 134.115 163.353 149.099 163.353 167.584C163.353 186.068 174.522 201.053 188.301 201.053Z" fill="#FAF3EA"/>
<path d="M188.301 191.064C197.967 191.064 205.803 180.551 205.803 167.584C205.803 154.616 197.967 144.104 188.301 144.104C178.634 144.104 170.798 154.616 170.798 167.584C170.798 180.551 178.634 191.064 188.301 191.064Z" fill="#F34919"/>
<path d="M197.311 167.584C197.311 174.26 193.274 179.676 188.301 179.676C183.327 179.676 179.29 174.26 179.29 167.584C179.29 160.908 183.327 155.492 188.301 155.492C193.274 155.492 197.311 160.908 197.311 167.584Z" fill="#FAF3EA"/>
<path d="M207.627 166.731L210.189 162.019L219.787 161.364L215.053 166.899L218.252 172.911L210.059 172.266L207.627 166.731Z" fill="#B7B8FB"/>
<path d="M189.447 166.979H216.907" stroke="#0B0A10" stroke-width="0.85" stroke-linecap="round" stroke-linejoin="round"/>
<path d="M11.5919 58.3379H70.9068C73.578 58.3379 75.7509 61.4725 75.7509 65.3511V96.4296C75.7509 100.298 73.578 103.433 70.9068 103.433H58.667L62.644 116.676L49.4274 103.433H11.5919C8.92066 103.433 6.7478 100.298 6.7478 96.4296V65.3511C6.7478 61.4824 8.92066 58.3379 11.5919 58.3379Z" fill="#2B60FF"/>
<path d="M41.3839 96.2114C50.241 96.2114 57.4211 89.0655 57.4211 80.2506C57.4211 71.4356 50.241 64.2897 41.3839 64.2897C32.5268 64.2897 25.3466 71.4356 25.3466 80.2506C25.3466 89.0655 32.5268 96.2114 41.3839 96.2114Z" stroke="#FAF3EA" stroke-width="0.69" stroke-miterlimit="10"/>
<path d="M41.3839 64.2897V96.2213" stroke="#FAF3EA" stroke-width="0.69" stroke-miterlimit="10"/>
<path d="M57.4211 80.2505H25.3466" stroke="#FAF3EA" stroke-width="0.69" stroke-miterlimit="10"/>
<path d="M40.5167 64.2104C38.4037 65.3313 36.7591 67.2061 35.6428 69.319C34.5364 71.4319 33.9483 73.7829 33.6194 76.1438C33.2008 79.1991 33.2407 82.3238 33.7091 85.3791C34.2972 89.1882 35.6527 92.9974 38.294 95.8245" stroke="#FAF3EA" stroke-width="0.69" stroke-miterlimit="10"/>
<path d="M43.6963 64.5774C45.012 65.619 45.9887 67.0276 46.7263 68.5254C48.9889 73.0786 49.1583 78.3658 48.8394 83.4348C48.5603 87.8887 47.8227 92.6006 44.9222 96.0031" stroke="#FAF3EA" stroke-width="0.69" stroke-miterlimit="10"/>
<path d="M25.2968 79.3677C25.6457 78.6734 26.2636 78.1476 26.8816 77.6814C33.0513 72.9695 41.4636 71.3129 48.9789 73.3266C52.0588 74.15 55.0689 75.628 57.1022 78.0683" stroke="#FAF3EA" stroke-width="0.69" stroke-miterlimit="10"/>
<path d="M25.4563 83.0182C26.134 84.526 27.7587 85.7758 29.7023 86.5992C31.6459 87.4324 33.8885 87.8689 36.1411 88.107C40.6463 88.5732 45.3409 88.2459 49.5371 87.0356C52.7764 86.1032 55.7965 84.5855 57.3613 82.423" stroke="#FAF3EA" stroke-width="0.57" stroke-miterlimit="10"/>
<path d="M190.962 113.005C206.177 113.005 218.511 100.73 218.511 85.5874C218.511 70.4448 206.177 58.1693 190.962 58.1693C175.747 58.1693 163.413 70.4448 163.413 85.5874C163.413 100.73 175.747 113.005 190.962 113.005Z" fill="#FFD387"/>
<path d="M195.168 100.011L210.029 100.219L210.448 79.0106L195.318 78.0484L195.168 100.011Z" fill="#B7B8FB"/>
<path d="M186.467 78.1575C186.467 78.1575 184.872 67.4442 187.324 67.2359C189.776 67.0276 195.208 77.8401 195.208 77.8401L200.54 78.4749L199.584 100.11C199.584 100.11 174.855 100.963 174.107 98.4136C173.36 95.8642 173.898 93.6422 173.898 93.6422C173.898 93.6422 172.084 90.5671 172.513 88.7617C172.941 86.9563 173.788 85.3691 173.788 85.3691C173.788 85.3691 172.612 82.0857 172.931 80.0621C173.25 78.0484 176.769 77.8301 178.682 77.9393C180.596 78.0484 186.467 78.1476 186.467 78.1476V78.1575Z" fill="#FAF3EA"/>
<path d="M51.8295 45.1744L55.5573 46.3152L51.8295 47.456L50.6833 51.1659L49.5371 47.456L45.8093 46.3152L49.5371 45.1744L50.6833 41.4644L51.8295 45.1744Z" fill="#FAF3EA"/>
<path d="M71.1659 45.1744L74.8937 46.3152L71.1659 47.456L70.0197 51.1659L68.8735 47.456L65.1457 46.3152L68.8735 45.1744L70.0197 41.4644L71.1659 45.1744Z" fill="#FAF3EA"/>
<path d="M71.1659 27.6959L74.8937 28.8366L71.1659 29.9774L70.0197 33.6874L68.8735 29.9774L65.1457 28.8366L68.8735 27.6959L70.0197 23.9859L71.1659 27.6959Z" fill="#FAF3EA"/>
<path d="M178.044 47.7039L181.772 48.8447L178.044 49.9855L176.898 53.6954L175.752 49.9855L172.024 48.8447L175.752 47.7039L176.898 43.994L178.044 47.7039Z" fill="#FAF3EA"/>
<path d="M174.486 115.585L178.214 116.725L174.486 117.866L173.34 121.576L172.194 117.866L168.466 116.725L172.194 115.585L173.34 111.875L174.486 115.585Z" fill="#FAF3EA"/>
<path d="M203.501 118.362L207.228 119.503L203.501 120.644L202.354 124.354L201.208 120.644L197.48 119.503L201.208 118.362L202.354 114.652L203.501 118.362Z" fill="#FAF3EA"/>
<path d="M71.9334 112.033L75.6612 113.174L71.9334 114.315L70.7872 118.025L69.641 114.315L65.9132 113.174L69.641 112.033L70.7872 108.323L71.9334 112.033Z" fill="#FAF3EA"/>
<path d="M33.2506 112.033L36.9784 113.174L33.2506 114.315L32.1044 118.025L30.9582 114.315L27.2304 113.174L30.9582 112.033L32.1044 108.323L33.2506 112.033Z" fill="#FAF3EA"/>
</g>
<defs>
<clipPath id="clip0_50_2087">
<rect width="225" height="215" fill="white"/>
</clipPath>
</defs>
</svg>
