<svg xmlns="http://www.w3.org/2000/svg" width="52" height="71" fill="none"><g clip-path="url(#a)"><path fill="#AF4ADC" d="M26.468 33.758c2.266.614 4.504.582 6.769.069 1.91-.435 1.884-.624 2.517 1.548.978 3.339 1.596 6.511.945 9.932-.46 2.429-1.43 4.604-3.569 6.067-2.321 1.589-8.22 3.13-10.987 2.33 1.547-1.987 2.34-4.789 3.2-7.126.657-1.782 2.216-6.683-1.678-4.955-2.614 1.164-3.986 5.651-5.446 7.926-.757 1.188-1.525 2.389-2.451 3.447-.914 1.038-2.282 1.78-2.482 3.25-.342 2.478 3.436 4.614 4.964 6.161 1.58 1.598 4.694 6.207 7.415 5.647 6.407-1.324-4.412-9.393-3.98-10.032.534-.79 5.832.44 6.996.411 3.175-.075 6.413-1.048 8.935-3.01 4.895-3.804 5.934-10.706 5.062-16.464-.24-1.586-.644-3.156-1.126-4.691-.383-1.23-1.425-2.895-1.438-4.169-.016-1.16.841-2.15 1.321-3.167.766-1.627 1.06-3.136 1.108-4.937.143-5.837-2.179-12.158-6.734-16.04-.986-.845-2.587-2.014-3.997-1.684-.753.176-2.202 1.273-1.458 2.1.208.23 1.744-.047 2.204.15 1.2.513 2.228 2.174 2.876 3.222 2.152 3.496 5.399 11.69 2.222 15.427.304-.356-4.17-5.584-4.662-6.146-1.553-1.774-3.259-3.553-5.195-4.929-3.69-2.617-9.19-4.929-13.556-2.685-10.616 5.447 5.237 21.338 12.225 22.348-1.357-.199 2.358.643 0 0ZM15.562 16.496c.029-4.082 9.134 1.81 10.093 2.64 1.432 1.236 8.273 7.838 7.347 10.092-.432 1.042-4.888.418-5.838.183-1.828-.452-3.727-1.59-5.235-2.699-1.96-1.442-7.992-7.424-6.376-10.21.006-.76-.419.717 0 0l.009-.006Z"/></g><defs><clipPath id="a"><path fill="#fff" d="M51.411 8.54 14.383 0 0 62.363l37.028 8.54z"/></clipPath></defs></svg>