<svg xmlns="http://www.w3.org/2000/svg" width="164" height="11" fill="none"><path fill="#AF4ADC" fill-rule="evenodd" d="M99.44 1.649s-.127-.254-.127-.508c.127-.253.38-.634.761-.507.127.38 0 1.268-.634 1.015ZM95.254.761l-.253.507c-.254 0 0-.507.253-.507Zm-56.442 0v.507c0 .127-.253 0-.38 0 .253 0 0-.38.38-.38V.76ZM44.647.76h-.127s0 .255-.254.128c0-.254.254-.254.38-.254v.127Zm57.837.001h.254s0 .254-.254.254V.76ZM72.17.888s-.127.253-.127.507c-.253 0 0 0-.127-.38 0-.127.127 0 .381 0L72.17.887Zm18.392 0s.254 0 .254.253h-.254V.888Zm-39.954 0s-.254.38-.38.253v-.127h.38V.888Zm16.742.127s.381.253.128.38c-.254 0 0-.127-.127-.38Zm6.723-.001h.254v.127-.253l-.254.126Zm3.297 0h.254c0 .38-.126.38-.38.38V.889l.127.126Zm12.43.001s-.253.253-.253 0h.254Zm2.03 1.015s-.254.126-.38 0v-.508c.253.254.507-.254.76 0 .128-.127-.126-.254-.126-.38h.38v.507c.254.254.888.253 1.142.507 0 .508-.254 1.015-.761 1.015 0 0 0 .127-.127.254 0 0-.254-.127-.254 0-.126-.127 0-.254-.253-.381 0 0 .38 0 .38-.254-.253-.253-.76.127-1.014.127-.127 0 0-.38 0-.253 0-.254 0-.127.253-.635Zm1.649-1.016s.254.127.254.254c0 0 0 .127-.254 0v-.38.126Zm-60.501.381s-.38 0-.38-.254c.126-.127.38 0 .507 0 0 .254-.254 0-.127.254Zm.507-.38s.761.126.888.507c-.38 0-.254.254-.507.254v-.254c-.127.254-.508 0-.38-.254h.253l-.254-.253Zm34.5.126h.254v.254c-.254 0 0-.127-.127-.254h-.127Zm-35.515.127h-.634c0-.126.38-.126.635 0Zm23.719.254.38-.38c.127 0 0 .126.254.126 0 .254-.38.127-.38.38h-.254v-.126Zm6.595-.381s-.127.254-.253.254c0-.127.126-.127.253-.254Zm44.9 0s.254 0 .254.254h-.254v-.254Zm9.133.254s.38 0 .253-.254c0 0-.126.254-.253.254ZM62.15 1.141s.127.127.254.127c0 0 0 .127-.127.254.127.127.127.507.38.634h-.76v-.634c.127 0 .253 0 .253-.254v-.127Z" clip-rule="evenodd"/><path fill="#AF4ADC" fill-rule="evenodd" d="M32.978 1.268s.253.254.127.254c0 0-.127 0-.127-.254Zm18.518 0h.254s-.254.254-.254 0Zm3.678 0s.38 0 .634.254c0 .254-.38.127-.507.38-.127 0-.254 0-.38-.126 0 0 .126-.38.253-.254v-.254Zm8.371 0s.38.127.38.38c0 .128-.253 0-.38 0 0 0 0-.253-.127-.253v-.254l.127.127Zm-25.113.127s-.254.254-.254.127.127-.127.254-.127Zm28.918 0s.127.38.254.507c0 .254-.254.254-.507.254v-.38s0 .126-.127 0c.127-.127.254-.381.507-.381h-.127Zm46.93 0s-.127.38-.381.38v-.38s.254-.127.381 0Zm-89.04 0s.381 0 .254.254c-.253 0-.634.38-.888.38 0-.253.635-.127.635-.634Zm17.885 0s0 .127.253 0c0 0-.253.254-.38 0 0-.127.127 0 .127-.254v.254Zm-29.553.127s.253 0 .253.127c-.126 0-.253 0-.253-.127Zm43.885 0s-.253.127-.253 0h.253Zm-29.172 0s.38.254.254.507h-.254v-.507Zm49.466.127s-.253.253-.38.253c-.254 0 0-.38-.38-.253 0-.254.507 0 .76 0Zm-21.308.127h-.254c0-.127.38 0 .254 0Zm3.932-.127h.253c0 .254-.253.38-.38.254v-.254h.127Zm63.798 0s-.127.507-.507.507c.127-.253.254-.507.507-.507Zm-69.633.127v.507c-.38 0 0-.254-.38-.127 0-.254.253-.507.507-.38h-.127Zm68.999-.127s.127.127.254 0c0 .253-.381.507-.381.76-.38 0-.507 0-.634-.507.127 0 .127-.126.254-.253h.38c.127 0-.38 0-.254.253.127 0 .381-.253.381-.38v.127Zm-66.209.127s.254 0 .254.38h-.38c0-.127.126 0 0-.254l.126-.126Zm-6.468 0h.38c0 .38 0 .888-.38 1.014-.127 0 0-.126-.254 0-.254-.38.254-.634.254-1.141v.127Zm67.096 0h.254v.253h-.381c0-.253.127-.253.254-.507l-.127.254Zm-17.503.507h-.508c0-.127 0-.254-.253-.254 0-.253.761-.126.761.254ZM8.371 2.03s.127 0 .127.253h-.254v-.38l.127.126Zm110.982 0s.127 0 0 .253c-.253 0-.253-.127 0-.254Zm5.581.126s-.127.127-.127.38h-.253c0-.253.253-.507.507-.38h-.127Zm4.44 0h.253v.254c-.126 0 0-.254-.126-.38l-.127.126Zm-30.061 0s.635.254.38.38c-.253 0-.253-.253-.38-.38Zm-76.99.127h.38c0 .38-.126.634-.633.507 0-.253.253-.38.253-.634v.127Zm99.694 0-.253.254V2.41s0-.254.253 0v-.127Zm-18.391 0s.254 0 .254.254h-.254v-.254Zm-66.97.253s.254 0 .254.254c0 0-.254 0-.254-.254Zm20.421.001s-.508.507-.888.38c.127-.254.507-.507.888-.38Zm-9.259-.001c0 .254-.254 0-.254.254 0 0-.127-.38-.254 0 0 0-.127-.127-.127-.254h.635Zm74.96.127s.254.127 0 .254h-.127v-.254h.127Zm.381 0h.38s-.254 0-.127.254v-.254s-.127.254-.253 0v-.127.127Zm-115.041 0h.254v.127s-.127 0-.127-.254l-.127.127Zm-5.961 0 .253.254s-.253 0-.253-.254Zm21.054 0s.254.38 0 .254v-.254Zm2.918 0s.253.127.126.254c-.127 0-.126 0-.126-.254Zm10.527.634v-.38c.254-.127.507.254.254.38h-.254Zm39.192-.38s.381 0 .381.127c-.127 0-.38 0-.38-.127Zm-63.418.127s-.127.254-.254.254c0-.127 0-.254.254-.254Zm125.822.381s-.507 0-.507-.254c.127 0 .507 0 .507.254Zm4.566-.255s-.254.635-.634.635c0-.507 0 0-.254-.127-.127-.253.127-.253.254-.253s.254-.381.634-.254Zm-78.638.127s.126.254 0 .381c0 0-.254-.254 0-.38Zm81.556.254h-.254c0-.253.254-.253.254 0Zm-41.222 0h.253s-.253.254-.253 0Zm17.757.381h.254v.254c-.127 0 0-.254-.254-.254Zm23.338.253s0 .254-.127.254v-.127h.254l-.127-.127Zm-49.847.381s-.254.507 0 .761c-.254 0-.254.254-.507.254-.127-.254 0-.761-.381-.634v-.254c.254 0 .634-.38.888 0v-.127Zm7.483.507h-.38c0-.253.38-.253.38 0Zm24.226 0-.254.508h-.634c0-.127.381-.127.254-.508 0 .254.38-.253.634 0Zm-81.683-.126h.254s0 .126-.254.126V4.82v.127Zm.635.126v.254s-.254.127-.38 0c0-.254.253-.254.253-.38l.127.126Zm46.802.254s-.254 0-.254-.127c0 0 .254 0 .254.127ZM38.939 5.2v.254h-.254c0-.127 0-.254.254-.254Zm19.406.38s0 .254-.254.254c0-.253.127-.38.254-.253Zm-10.781.381s-.38.507-.634.761h.253c0 .254-.507 0-.507-.127 0-.253.38-.507.254-1.014.38-.127.507.126.76.253l-.126.127Zm59.994 0s.254 0 .254.254h-.254v-.254Zm-69.76.127h.38c.38.888-.634 1.015-.634 1.522h-.254s0-.127.127-.127c0 0-.254 0-.254-.126v-.888s.254 0 .254.127c0-.127.38-.508.254-.635l.127.127Zm5.707.38s-.38.508-.888.254v-.254c.38 0 .254-.253.38-.38.128 0 .381 0 .381.38h.127Zm65.194-.38h.127c0 .127 0 .127-.254.127v-.254l.127.127Zm-108.191 0H.76s-.127.38-.253.254c0 0 .126 0 0-.254Zm61.769 0h.38s-.253 0-.38.254c-.127 0 0-.254 0-.38v.126Zm-42.871.127s-.127.254-.38.254v-.254h.38Zm60.628.253s-.38.38-.634.254c0-.38.38-.38.634-.254Zm-21.308-.126h.253s0 .254-.253.254v-.254Zm49.212.127h-.254c0-.127.127-.127.254 0Zm.508.126s0 .254-.254.38c0 0 0-.126-.254 0 0-.253.254-.38.508-.253v-.127Zm-54.286.127s.253.634 0 .888c-.127-.254-.381 0-.508-.254 0-.253.38-.253.38-.634h.127Zm45.026.127s-.253.38-.634.38c0-.253.507-.38.634-.38Zm3.172 0h.253v.38c-.127 0-.253-.253-.38-.38h.127Zm-29.934.001s-.254 0-.127.253h-.38s.253-.508.507-.254Zm18.518-.001s.254.634.38.888h-.634v-.254h.127V6.85h.127Zm13.318 0s-.254.254-.254 0h.254Zm2.79.001s.381.253.508 0c0 .253-.127.126 0 .38-.254 0-1.015.507-1.015 0h.254c0-.127.253-.254.38-.508l-.127.127Zm-89.8.126s-.38.888-.761.76v-.253c0-.127-.254 0-.38 0 0-.253.253-.253.253-.38.38 0 .507-.254.761 0l.127-.127Zm50.481 0s-.507.507-.76.888c0 0-.255-.127-.381-.127.507 0 .634-1.015 1.141-.634v-.127Zm-38.178.254s-.254.126-.507 0v-.254s.38 0 .507-.127v.38Zm35.895-.254s0 .38-.38.38v-.253c0-.254.253-.127.38 0v-.127Zm4.82 0 .254.38c0 .127-.381.254-.508 0 0-.127.254-.253.254-.507v.127Zm.888 0v.254h-.38c0-.127 0-.254.38-.254Zm2.536 0s0 .254-.126.38h-.38c0-.253.253-.253.506-.253v-.127Zm24.099 0s.254.38 0 .254v-.254Z" clip-rule="evenodd"/><path fill="#AF4ADC" fill-rule="evenodd" d="M102.484 6.976h-.38c0-.127.253 0 .38 0Zm.381 0s.38 0 .253.38c-.127 0-.253.254-.38 0 .127-.126 0 0 0-.38h.127Zm7.103 0s.253 0 .38.127c0 0 0 .253-.254.253 0 .127.254.38 0 .38v-.76h-.126Zm-63.546.254s.254.38 0 .253c0-.127.254-.254 0-.254Zm50.355-.127s0 .253.253.507c0 0-.127.127-.38 0 0-.127 0-.38-.127-.507h.254Zm.634 0h.127c0 .127-.254.253-.38.253 0-.126.253 0 .253-.253Zm24.479.127h.254s.127.38 0 .507h-.127s-.127.253-.254.253c0-.38.254-.253.127-.634V7.23Zm-114.28 0s.127 0 .127.126c-.127 0-.507.254-.507 0 .127 0 .253.127.253 0l.127-.127Zm45.916.126s0 .38-.127.508c-.508 0-.254-.888.127-.508Zm18.137-.126s.254.126.38.253c0 .254-.253.127-.126.38-.127 0-.254 0-.38-.126 0-.254 0-.38.126-.508Zm.887 0h.255v.253c-.127 0-.127-.127-.127-.254h-.127Zm25.368.126v.254h-.253c0-.127.126-.127.126-.254h.127Zm-19.533 0s.38 0 .254.254c.127 0 0 0 .254-.127 0 0 .126.254.38.127 0 .127.127.38.127.507h-.38c0-.38-.381-.253-.381-.507-.127 0 0 .127-.254 0 0-.127-.127-.254 0-.38v.126Zm23.719 0h.507v.254c-.127 0 0 0-.253-.127 0 0 0 .254-.254.254v-.381Zm12.049 0s.254.254 0 .254c-.127 0-.127-.127 0-.254Zm-44.266 0h.127v.508c0 .126-.38.126-.507.126 0-.253 0-.634.38-.76v.126Zm66.589.127v.254s-.253-.254 0-.254Zm-124.68.254h-.254c0-.127.254-.127.254 0Zm26.382-.127s0 .127.127.127c-.127.253-.254.127-.507.253v-.253h.253l.127-.127Zm3.678 0s.254 0 .254.127c-.127 0-.254 0-.254-.127Zm48.325 0s0 .127.127.38h-.254v-.253l.127-.127Zm-20.928.127s0 .254-.254.254c0 0 .127-.127.254-.127v-.127Zm-53.652.253s-.254.254-.38.254c-.254-.507.253-.76.38-.253Zm38.685-.253s.254.127.254.254c0 .126-.254.126-.38 0v-.254h.126Zm19.153.38s-.127-.127-.38-.253c0-.254.507 0 .38.253Z" clip-rule="evenodd"/><path fill="#AF4ADC" fill-rule="evenodd" d="M121.89 7.864v.253c-.253 0 0-.126 0-.253Zm-88.405.126s.38 0 .38.381c0 0-.253.127-.38 0v-.38Zm22.323 0s0 .508-.253.508H55.3c-.127 0 0 .254-.254.254-.126 0 0-.38 0-.508 0-.127.254 0 .254 0s.127-.127.127-.253c.127 0 .254-.127.38 0Zm-35.134.508s-.507 0-.634-.254c.38-.507 1.015.127 1.396.254 0 0 0 .127-.127.127 0 0 .253 0 .253.253-.253 0-.38.127-.634 0v-.253h-.507s.38-.508.38-.254l-.127.127Zm24.1-.381s-.254.38-.254 0h.254Z" clip-rule="evenodd"/><path fill="#AF4ADC" d="M142.692 8.244v-.253h-.254v.253h.254Z"/><path fill="#AF4ADC" fill-rule="evenodd" d="M41.35 8.244s.38 0 .38-.127c.126 0 .253 0 .253.254-.253.127-.634.254-.634 0v-.127Zm15.98-.127h-.253v-.253l.253.253Zm-28.157.001h.38c0 .253 0 .253-.127.38-.127 0 0-.254-.127-.507l-.126.127Zm3.805-.001s.127 0 .127.254c-.127 0-.254.254-.38 0 0-.254.253 0 .253-.254Z" clip-rule="evenodd"/><path fill="#AF4ADC" fill-rule="evenodd" d="M42.237 8.118v.38c.253 0 .38-.254.634-.254 0 .127 0 .254.127.254 0 .127 0 .507-.38.38 0 0 .126 0 0-.253h-.254.127s-.254.127-.381.127v-.254s-.127.127-.254 0c-.253-.127 0-.38.254-.507l.127.127Zm23.845-.001s.254.254.254.508c-.254 0-.254-.254-.254-.508Zm69.76.127v.254s-.126-.254-.38-.254c0-.127.253 0 .38 0Zm1.903.127s-.254 0-.381-.254c0 0 .381 0 .381.254Zm-131.783 0h-.254c0-.127.254-.127.254 0Z" clip-rule="evenodd"/><path fill="#AF4ADC" d="M68.619 8.498v-.254h-.254v.254h.254Z"/><path fill="#AF4ADC" fill-rule="evenodd" d="M72.297 8.244v.254s.127 0 .127-.254h-.127Zm-65.701.127s.127 0 .127.254c-.127 0-.254-.127-.127-.254Zm59.867 0h.253c-.127 0 0-.127-.253 0Zm68.745 0h.381c0 .127-.127.127-.381.127v-.254.127Zm-120.875.254v.38s-.254.127-.38 0c0-.254.126-.38.38-.507v.127Zm132.671.127s.127 0 .127.253h-.127c-.127 0 0-.127 0-.38v.127Zm-141.677 0s0 .253-.127.253V8.88h.254l-.127-.127Zm11.415 0s0 .253-.126.253c0-.126 0-.253.126-.253Zm6.596.126h.254c0 .254-.254.127-.254 0Zm-18.645.127s-.253.127-.38.127c0-.253.253-.253.38-.127Zm15.601 0h.254s0 .254-.254.254v-.254Zm.507.127s.127.38 0 .508h-.126v-.38l.126-.128Zm-16.869.254h.254s0 .253-.254.253v-.253Zm-1.902 0s.253 0 .253.253c-.253 0-.253 0-.253-.253Zm2.41.127h.126a.273.273 0 0 1-.253.253s0-.126.126-.253Zm-2.157.38s0 .254-.253.254c0-.127 0-.254.253-.254Zm84.093-8.498s-.254-.127-.507 0c0-.127-.254-.127-.38-.38 0 0 .38 0 .38-.254.253 0 .253-.254.253 0l.254-.254c.254.254.634.38.761.634-.254 0-.38 0-.38.254 0 0-.254 0-.254-.254 0 0 0-.253.127-.253-.127 0-.127.253-.254.38v.254c.254-.127.254.127.38.253.254 0 .127-.38.508-.38 0-.127-.254-.254 0-.38.127.38.634.76 0 1.014 0 .507-.38.634-1.015.634 0 0-.254-.127-.254-.253.127-.127.254.126.508 0 0-.127.127-.38.38-.38-.126-.128-.507-.128-.507-.381v-.254Zm17.503 5.073s-.127 0 0 .381h-.634c0-.127 0-.127 0 0 0-.254-.127-.254-.127-.507.254-.254.381-.761.254-.761.634 0 .254-.635.381-1.142-.254-.254-.381-.254-.635-.507l-.761.38c-.507-.127-.38-.507-.253-.888 0 0-.254 0-.127-.253-.254 0-.508 0-.508-.127h.254c-.38 0-.507-.254-.761-.507.254 0 .634 0 .634-.635h.381c-.254-.507.634-.38.888-.126v-.254c.253 0 .38 0 .507.254 0 0 0-.127.254-.127.127 0 .126.127.253.127.127.253.254-.127.254-.127 0-.127 0-.38-.254-.38.381 0 .254-.381.635-.254-.127 0 0 0 0-.254h.634v.254h.253s0-.254.254-.254c0 .127-.127.254 0 .254v.253s.254 0 .254.127h-.254c0 .127.254 0 .254.254 0 0 0-.127.127-.127-.127 0-.127-.38-.254-.634.38 0 .634 0 .634.38.254 0 0-.253.127-.507.507 0 .888.38.634.76 0 .381.507 0 .761.381 0 0 .254-.126.254-.38.253 0 .253.254.634.127 0 0 .127-.127.127-.38.127.253.38 0 .761 0v.38c1.015.507.38-.38 1.015-.634v.253c.507 0 1.014 0 1.268-.38.254 0 .127.253.38.127v.253c-.38 0-1.268 0-1.395.38h-.253c.126.128 0 .381 0 .508s-.254.254-.381.38c.381 0 1.015-.253 1.142-.76h.38c0 .253-.127.253-.254.38 0 .38.508 0 .635 0-.127 0-.254-.254-.127-.507h.253c-.126-.254 0-.508 0-.634.381.126.508.253.888.253 0 .508-.38.508-.634.761 0 .38.254.761.127 1.142 0 0 0-.127-.127 0 0 .127.127.127.127.253.127 0 .127-.126.254-.253 0-.254.253-.38.634-.38 0 0 0-.254.253-.254v.253h.127c.127 0 .254-.127.381-.253-.127 0-.254-.127-.508-.254v-.634c.381 0 .381-.508 1.015-.38 0 0 0 .126.127.126-.127 0 0 0 0 .254h-.254c0 .127 0 .127.254.127 0 0 0-.508.254-.508 0 .508.507.634 1.014.761 0-.38.508-.253.635-.507h.38v.254s.254-.381.381 0h.126-.253v-.381c0 .254.507 0 .634-.127h.38c-.253.254-.507.761-.887.761 0 .127.253 0 0 .127.126.127.253.254.507.38 0 0 .127-.253 0-.253h.38c.254.38-.126.634 0 1.015h-.253c0-.127-.127-.254-.381-.127 0-.127-.253-.38-.507-.254v-.634s-.381 0-.127-.254c-.254 0-.38.508-.634.634 0 0 .254.254.254.508 0 .253-.254.38-.508.38 0 .254.508.127.634.254 0 .254 0 .254-.253.38v.508c.38 0 .507-.38.634-.254v-.254h-.127c0-.38.127 0 .381 0 .253 0 .253-.253.507 0l-.127.127c.254.508-.254 1.142-.888 1.142-.127 0 0 .253-.127.253.381 0 .254.888.761.888v.38s.254 0 .254.128c0 0 .254-.254.507-.254v-.761c0 .127.381.254.381.507.254 0 0-.38.254-.38-.254-.127.253-.38 0-.634 0 0 0 .126-.254 0 0-.254.127-.254.254-.38 0-.381-.254-.762-.127-1.27h.761c0-.126-.254-.126 0-.253 0 0-.254 0-.381-.127v-.253.253c.254 0 .508-.38.634-.253v.38c.254 0 .254-.38.254-.507h-.254v-.634c.127-.38.508-.508.761-.761v.253c.508.254 1.015.761 1.396 1.142-.127-.254.38-.254.507-.508 0-.126 0 0-.127-.126 0-.254.381-.127.381 0 0 0-.508.887-.888 1.014.38.254.634.888 0 .888 0 0 .127.254.127.507-.254.254-.508 0-.761.381 0 .127.126 0 .253.127.254 0 .127-.254.381-.127.127 0 0 0 0-.254h.127c.253.254.634 0 .888-.253 0 0 .126.126.253 0 0-.254.254-.38.254-.635-.254 0-.127.254-.381.127 0-.253.254-.253.508-.38v-.634c.127-.38 1.014 0 1.141-.508.127.127.508 0 .761 0v-.127h.508c0 .254-.254.254-.381.508.127.38.634.888.888.38 0 0 .38 0 .254.254 0 0-.127.254-.254.254v.253c0 .634-.888.508-.888 1.142-.38.253-.634.507-.761 1.014-.254 0-.634 0-.761-.126v-.254c0-.254-.507.127-.38-.254h.253s.888-.634.381-1.141h.127v-.254h-.254v.38c.127 0-.127.254-.127 0-.761.508-1.268.888-1.649 1.65h-.38s-.381 0-.508-.508h-.253v-.127c-.127 0-.508 0-.381.254 0 0 .507 0 .507.254-.38.507-1.141.253-1.395.76 0 .128.127.254.381.381-.381.127-.634.38-1.015.254 0 0 .127-.127 0-.254 0 0 0 .254-.38.254 0-.127-.127 0 0-.254-.254 0-.508 0-.508-.253-.38 0-.634.253-1.014.126-.127 0 0 .254-.381.254v-.38h.254c-.254-.508 0-.635-.381-1.142h-.761c-.38 0-.507-.507-.761-.507s-.254.507-.634.634c0 0 .254 0 .254-.127h.126c0 .127-.38.127-.38.38-.254 0-.127-.38-.507-.507h-.254c.254 0 0 .254 0 .507 0 0 0 .127-.254 0 0 .381.254.254.254.508-.254 0-.254-.127-.381-.254v.127h-.253v-.38c-.381 0-.381.253-.634.253v-.254s0-.253.253-.126c0-.127 0-.38.127-.38-.38-.255 0-.889-.127-1.142 0 0 .254 0 .254-.127 0 0 .254 0 .127.127.253 0 .253-.254.38-.508-.253 0-.761 0-.761.38h-.253s-.254-.253 0-.38c0-.127-.254 0-.381-.253a.697.697 0 0 0-.634.38h-.634c-.254 0 0 .127 0 .254-.254 0-.127.127-.381.253.508 0 .381.635.634.888 0 .38 0 .761-.507.635-.254 0-.507-.762-.888-.762v.254s-.253.254-.38 0c0-.254 0-1.015-.254-1.015 0 0 0-.253-.381-.253 0 .38-.253.507-.634.76 0 0 .127-.38 0-.507h-.253c0-.253.126-.38.38-.38 0-.127-.127-.127 0-.254h.507c0-.127-.126-.127-.126-.253-.761 0-1.015.887-1.903.634 0-.254.127-.508 0-.888.381 0 .507-.254.761-.254-.38-.38 0-.888 0-1.268-.38 0-1.268-.38-1.395.254-.254 0-.381-.254-.634-.38 0-.255.38-.128.127-.381h.126v-.381c.254 0 .254-.254.381-.38-.254 0-.254-.127-.127-.381-.507.254-.254.507-.761.761 0 .254.254.254.254.507 0 .127-.254.254-.254.38 0-.126-.507-.253-.634-.253.254 0 .127-.38 0-.634h.254c.126 0 0-.254 0-.254 0-.126-.127 0-.381 0v.254h-.254c-.253-.254-.38-.127-.634-.38-.127 0 .127 0 0 .253h-.253s-.127.254 0 .254c0-.127.126 0 0 0 0 0 0 .254-.127.127 0 .127.38 0 .38.38 0-.253.381-.38.634-.127 0 0-.126 0 0 .254-.253 0-.761.38-.38.507.254 0 0-.38.254-.507.507 0 .253.507.634.634-.254.127 0 .508-.254.634 0 0 .254-.253.507 0 0-.126 0-.38.254-.38v-.38h.127c.254.507 1.268.253 1.015 1.014-.127 0-.381.254-.635.38 0 .508.127.635.381.888h.761V5.2h.127c0 .254.127.254 0 .634-.381.254-.888 0-1.269.38 0 0 .254 0 .127.254 0 0 0-.126.254 0 0 .127 0 .127-.381.127-.253-.507-1.395-.38-1.395.38-.253.255-.634 0-.888 0 0-.253.381-.253.381-.506h.254s0-.381.253-.254c-.127-.254.127-.38 0-.634a2.16 2.16 0 0 0-1.268 0c.127.126.38.253.507 0l-.127.887Zm4.947-3.424s.381-.254.888-.254c-.127-.253-.254-.634-.381-1.014-.761.253-.761.634-.507 1.141v.127Zm1.268.76s-1.395 0-1.902.508c.253 0 .253.127.38.38.635 0 .888.254 1.396.254 0-.253 0-.253-.127-.38.127 0 .127 0 .253-.38 0 0 .381.126.127.38h.381s0-.254.127 0v-.507h-.381v-.254s0-.127.254 0v-.38h-.127c.127 0 0-.127.254 0-.381 0-1.269 0-.888.887l.253-.507Zm4.44-.253h-.254c.127 0 .127-.253.38-.253-.126 0-.126-.127 0-.38-.253 0-.38 0-.634.126 0 .38.381.634.634.507h-.126Zm-1.396.127s.635 0 .508-.254h-.254v-.38s0 .507-.254.76v-.126Zm10.908 0s.127.127.381 0v-.38c-.254 0-.381 0-.381.253v.127Zm-3.805 1.015s.254-.634.254-.761c-.127 0 0-.254 0-.38h-.761c.254.126.254 1.14.761.887l-.254.254Zm-9.259-.761v.253c.508 0 0-.253 0-.253Zm3.552.127.253.253c0-.253.254-.127.254-.38-.127-.127-.381 0-.381.127h-.126Zm-1.142.126s0 .381.127.381c0-.127.127 0 .254 0v-.254c0 .127-.254 0-.254 0l-.127-.127Zm6.976.254s.254-.254 0-.254c0 0-.254.254 0 .254Zm-5.834.761h.126c0-.254-.38-.254-.38-.254.127 0 0 .254.254.254Zm4.819.634c.635 0 1.015-.507 1.142-.76-.254-.508-1.142 0-1.142.76Z" clip-rule="evenodd"/><path fill="#AF4ADC" fill-rule="evenodd" d="M72.805 3.678s.38-.127.634 0v-.634c.507 0 0-.888.38-1.015 0-.126-.253 0-.253-.126 0 0 .126-.127.126-.254h-.634v-.38c.254.253.634.38.888.253.38-.254.761-.38 1.015-.634.127 0 .38 0 .507.254.254 0 0-.254.38-.254v.507s.128 0 .128.254c.126 0 .126-.127.253-.254.254.254.634.508.761.888.127 0 .127-.254.38-.127 0 .127.128.254.254.38 0 0 0 .128-.126.128.253 0 .38.126.887 0 0 0 0-.127.127-.38.508 0 1.395.38 1.269.887l.253.254v.253c.127.127.508 0 .634.38 0 .128-.126.128-.253.254.253.127.38-.253.507-.253 0-.127-.38 0-.254-.38.381 0 .254-.508.508-.508v-.254s-.508-.127-.888 0c0-.253-.127-.253-.254-.253 0-.38-.38-.508-.634-.635-.127 0-.38.127-.634 0 .127-.253.507-.253.507-.76h.761c0 .126 0 .126.254.253.254 0 0-.127.254-.254h.253c0 .127-.253 0-.253.254 0 .127.126.254 0 .38.38 0 .76.508.76 1.015.254 0 .381.38.762.254v-.38c0-.127-.38-.127-.254-.508h.254s.253.38.507.38c0-.126.127 0 0 0 0-.38-.507-.507-.634-.76 0 0 .254-.127.38-.127 0-.254-.253 0-.126-.254h.38c0 .38.254.38.38.507.254 0 0-.253.254-.253 0 0-.253 0-.127-.254.254 0 .38.127.508.254 0 0 0 .127-.127.253 0 .254.38.254.127.508.38.253 1.141.38 1.649.253-.38.254-.508.508-1.142 1.015.507.38-.127 1.268-.76.888v-.38c-.255-.254-.762-.254-.762 0 0 .38.507.634 1.015.507 0 .507.634.507.888.38.253.254-.127.888-.254 1.269-.127 0-.38 0-.254.253-.127-.253-.253 0-.507 0 0-.38.127-.634 0-1.014 0 0-.127 0-.254-.127-.888 0-1.014.634-1.395 1.141 0 .254.507.254.38.635-.507 0-.76.76-1.648.76.126-.253 0-.38 0-.634-.254-.253-.254.127-.508 0v-.507s-.253-.127-.38-.254h-.38s.253-.38 0-.253c0-.254 0-.254.253-.38 0 0 0-.255-.127-.381h-.254s-.76.634-1.268 1.014c0 0 .254 0 .254.127-.38 0-.761.508-1.142.508-.253 0 .127-.254.127-.381-.254 0-.38 0-.634.127v.127c-.634.253-1.142.507-1.142 1.014h-.634v-.38c-.253-.127-.634-.38-.76-.634h-.128s-.127 0-.127-.254h-.38s-.127.254-.127 0v.254h-.38.253v-.254c0 .127.127 0 .254 0 0-.127 0-.127-.254-.254 0-.507.508-.38.761-.634v-.38c-.38 0-.634.38-.888.253v.38h-.38c.127-.253-.254-.38-.507-.253.38.127 0 .508-.127.634h-.254l-.38-.38s0 .254-.127.254h-.254v-.381h.254s-.127 0 0-.254v.127c.253 0 .127-.254.253-.38-.126 0 0 .126-.253 0v-.254h-.38s-.254.254-.254.507c-.254 0-.508 0-.635-.127-.126.254 0 .762-.634.635-.127 0 0 .127 0 .253-1.014.254-1.522.508-.76 1.396h-.635c0-.254-.38-.381-.127-.888-.127 0-.253-.127-.38-.254 0 0 0-.38-.127-.507.38-.254.38-.508.38-1.015-.253 0-.507.127-.507.38-.634 0-.761.888-.888 1.396-.38 0-.76 0-1.015.127v-.381c.127.127 0 0 .381 0v-.254c.254 0 .127-.126.254 0 0-.253 0-.253-.254-.253 0-.254.127 0 .254 0v-.254s-.254 0-.254-.254c-.254 0-.507 0-.507.254h-.635c0-.127 0-.127.127-.254 0 0-.127 0-.253-.127 0 .254-.508.381-.761.254-.38.254-.888.634-.888 1.015h.634v-.127c.254 0 .38 0 .38.127-.253.254-.38.634-.76.634v.254s-.381 0-.508.127c-.254 0 0-.381-.38-.381.253-.254.38-.38.38-.634-.127 0-.254-.127-.38-.38-.254 0-.381 0-.635-.254 0-.254.254-.254.38-.508 0 0 .255 0 .255.127.126-.254.507-.254.76-.38 0-.127-.126 0 0-.254 0-.38.635-.38 1.015-.507h-.253c0-.254.38-.508.38-.888-.254-.127-.507-.254-.634-.634.38.126.127 0 .254 0V3.17h.253c0 .127-.127.127-.127.38.127 0 0-.507.254-.38 0-.507-.254-.634-.38-1.015h-.254c.127 0 .127.254.38.254 0 .38-.507 0-.634 0-.253 0-.253.254-.38.254 0-.127-.127-.254-.38-.254 0-.127.126 0 0-.254-.255 0-1.142 0-1.27.508h-.253s.254 0 .38.126c.508-.253.889.127 1.27.254v.254c0-.127.126 0 .38 0 .253.38 0 .507 0 .888 0 0-.381 0-.254.126-.254 0-.38.381-.888.381-.38-.507-.761.254-1.142.254.254.634-.507 1.141-1.141 1.141.127 0 .507 0 .507.38-.38 0-.507.508-1.014.381 0-.253 0-.507.253-.634-.253-.127-.76.254-1.141.254v.253c-.634.254-.508 1.142-1.269.888 0-.127-.253-.127-.253-.253.253-.254 0-.635-.38-.508v-.253h-.508c0-.635-.508-.761-1.015-.635.127 0 0 .254 0 .254-.38 0-.634-.507-.76-.761-.381 0-.635.254-1.016 0 0-.127-.126-.38 0-.38 0 0-.253 0-.126-.127-.254 0-.38.253-.635.253 0 .254.508 0 .635.254-.254.507-1.015.634-1.396.888.254.38-.507.38-.253.76-.254.128-.254.128-.508.381 0 .254.38.254.508.38v.381h-.254s-.254-.38-.38-.507c-.127 0 0 .254 0 .38-.127 0 0-.126-.254 0v-.38s0-.254-.254-.254v.254h-.254c-.253 0 0-.127-.126-.127v.254c-.888 0-1.522.634-2.157.38V7.99c.127 0 .127-.38.381-.38 0-.381 0-1.015.38-1.015 0-1.015-.76-1.142-1.014-1.903.127-.127.127-.507.38-.634 0-.127-.253-.254 0-.38-.38.126-.76.38-.76.76-.254 0-.254 0-.381-.253h-.38v-.254c-.254 0-.508-.761-.889-.38-.253-.254.38-.254.38-.508h-.126v-.127c.888.127 1.395-.253 1.903-.253.253-.254.253-.761.507-1.015 0-.127-.38 0-.254-.254h-.887v.254s0 .127-.254 0c-.508.634-1.269 1.268-2.156 1.522.38.127.253.38.253.888.254 0 .254-.254.254-.38.127 0 0 .253.254.126 0 .38-.38.38-.635.38 0 0 .38 0 .38.254.128 0 0-.127.255 0 0 0-.127 0-.127.254 0 0 0 .38.38.254 0 .253-.38.507-.38.76h-.38c0 .254 0 .635-.254.889 0 .38.507 0 .634.38.38 0 .76 0 1.014-.127 0 .508-.634.508-.887.888-.254 0-.254-.254-.635-.127v-.634c0 .254-.507.127-.634 0-.127 0-.127.254-.38.254v-.38h-.127c0-.254 0-.254.254-.381-.127-.254 0-.635 0-.888 0 0 0 .127-.127 0 0-.254.253 0 .38-.254-.253 0-.76.127-.888-.254v.381c-.253 0-.253-.254-.507-.254 0-.253-.127-.38 0-.38v-.127c-.38 0-1.015.127-1.268 0v-.634c.253 0 .253-.38.253-.508-.253 0-.127-.253-.38-.253 0 .634-.508.888-1.269 1.014 0-.126.127-.38.254-.507 0 0-.127 0-.254-.127-.253.127-.38.38-.507.761h.38c.254.508-.38.761-.38 1.269 0 0 .254.507.38.253 0 .254.381.254.254.508.127 0 .127-.254.38-.254h.255c0 .254 0 .38.126.507-.127.508-1.014.761-1.522.635.254-.381-.127-.761-.253-.888h-.38V5.454c.253 0 .253-.38.506-.38V4.82h.254c-.127-.254 0-.38.127-.508l-.127-.126s-.127 0-.38.126c0 0 0-.253-.127-.126.127-.127 0-.38-.127-.508-.38 0-.38.38-.761.38 0 0 .127 0 0 .254-.254-.126-.38 0-.508.254-.38 0-.634 0-.887-.254 0 .761-.888.508-1.015 1.015-.507 0-.254.254-.634.38 0 .127.253.381.127.635h.127s0-.38.253-.38v.38c0 .127.127.254.38.38 0 .635-.887.761-1.14.888v-.507c.253 0 .253-.38.633-.38v-.381c-.127.254-.507 0-.76 0v.254c-.127 0-.254 0-.254.126h-.508c-.253 0-.253-.253-.127-.38-.38-.254-.76-.254-1.141-.507 0-.127.127-.127 0-.381 0 0 .38 0 .254-.127 0-.127-.127 0-.254 0h.127c0-.254-.127-.254-.254-.634 0 .254-.507 0-.76 0 0-.254.253-.38.126-.634.254 0 .634 0 .76.38 0-.38-.253-.634-.887-.38 0-.127 0-.254-.127-.254 0 0 .254 0 .254-.127-.254-.38.38-.634 0-1.014.38 0 .634-.38.888-.508v-.253c.253 0 .507-.254.507-.508 0-.127-.254-.38 0-.507.507.254.888.254 1.395 0V.634h-.253.253v-.38c.254 0 .634 0 .634.38.254 0 .127-.127 0-.253.254.126.635 0 .888 0 0 .507-.507.507-.76.634v.253c.253-.38.507 0 .887-.253-.127-.127 0-.38 0-.508.254 0 .254.127.254.254.254 0 .254-.38.507-.254.127.888-.507.635-1.141.888.127.254 0 .761.253 1.015-.127.254-.253.38-.253.76h.253c0-.253.254-.76.635-.633 0-.38-.381 0-.381-.127 0-.254.507 0 .507-.127v-.38h.634c-.126 0 0-.127-.126-.254 0 0 .127-.254.38-.254V.888c.254 0 .38 0 .508-.254v.38c0 .254.253.254.38.254v-.253s.254 0 .127.253c-.38 0-.254.254-.507.38 0 .255 0 .381.253.635.127 0 0-.254.254-.254h-.127s.254 0 .254-.253c.253 0 .507-.254.76-.38 0-.128-.253 0-.253-.254.254 0 .254 0 .254-.381.253 0 .253.127.253-.127.508 0 .381 0 .635.127V.634h.253c0 .127-.127 0-.127.254s.381.127.381.38c0 0 0-.126.127-.126.254 0 .38.38.507.634.127-.127.254-.38.508-.508 0 .127 0 .127.253.254 0 .38-.254.634-.634.634 0 .127 0 .38-.127.38 0 .128.254.128.254.381 0 0 .507 0 .38-.127.254-.126 0 .254.38.254 0 .127-.253.254 0 .254v-.254c-.253-.38.255-.634.381-.888-.253 0 0 .127-.127 0 0-.253 0-.507-.126-.76.253-.128.253-.635.634-.762-.254-.253-.38 0-.634 0 .253-.38.507-.38.634-.634 0 0 .254 0 .38.254 0 0 0-.127.127-.254 0 0 .254.127.38.254 0 0 0-.127.254 0 0 .127-.253 0-.253.253 0 0 .127.127.38.254-.253.254 0 .507 0 .634.508 0 .508-.38.888-.253v.253s.127 0 .254-.127c-.508-.126-.254-.507-.508-.634 0-.127.38-.127.38-.38 0 0 0 .127.255.253.76-.507 1.014.508 1.775.508 0 .253.254.38.254.634s-.254.254-.127.38c.508.254 0 .888 0 1.269-.254-.254-.38.507-.507.634.253 0 .38.254.507.507.254-.127.508.127.634 0 0 0 0 .254.254.254 0 0-.127 0 0-.254h.507v-.38h.127c.254 0 .38-.254.254-.508.127 0 .254 0 .38-.126h-.253v-.888h.253c0 .507.508.888 1.015.888h-.254c0-.127.127-.38.38-.38 0-.255.255-.381.381-.508-.126 0 .127-.254-.126-.508.634-.634-.254-.634-.254-1.268.254 0 .507.127.76.254.128 0 .381-.127.381-.254.38 0 .761.507.381.634v-.253h-.127c0 .38.38.507.254.887 0 .127.253.127.38.127 0-.127.254-.253.38-.38v.253s-.126 0-.253.127c0 .254.127.634.254.888-.254 0-.888.38-1.015 0-.507 0-.507.38-.888.254v-.254c-.38 0-.507.507-.888.38v.254h.38v.254c.381 0 1.016 0 1.27.254-.381.38-1.015.507-1.015 1.014h.38c0-.253.38-.38.254-.507.38 0 .507-.254.507-.634.254-.38 1.142-.254 1.142 0 .38-.254.634.127.887.38 0 .127-.126.254-.126.38.127.128.38 0 .38.381h.254c.254 0 .38-.253.507-.38 0 0 0 .127.127.127V4.82h.38s-.126.127-.38.253c.254.127.38.508.634.635 0-.508.508 0 .761 0 .254.253 0 .507 0 .76.127 0 .508-.126.634 0 0 0 .127-.253.38-.126 0-.254-.126-.254 0-.507.381 0 .381-.254.381-.635.254 0 .254-.38.38-.507 0-.254-.126-.38 0-.634 0 0-.253 0-.126-.254h-.254c0 .254.127.254.254.38-.254.254-.634.635-1.015.635 0 .253 0 .38-.253.38.127-.253.127-.634 0-1.014 0-.127.127-.254 0-.508h.253s-.126 0 0-.253h-.38c.127-.127.38-.127.38-.38 0 0-.126-.255-.253-.128v-.38h.507V2.41h.507c0-.254-.253 0-.126-.127-.38 0-.761.254-1.269.127 0 0 0 .254-.127.38.127.127.38.254.38.635 0 0-.126.126-.253 0v.38c0 .127.254.127.254.38-.761.381-1.142.508-1.903.635 0-.38-.38-.508-.507-.888h-.38c0-.127.126-.254 0-.254v-.634c.38 0 .634 0 .76.38.762 0 1.269-.253.888-.76h.127c-.253 0 0-.254 0-.254 0-.127-.127 0 0-.254.508.127.254-.76 0-.888 0-.126.254 0 .127-.253.127 0 .127.253.254.38.253-.38.634.254 1.014.254.127 0 .127-.254.508-.254 0-.253.507-.253.38-.38.127 0 .38 0 .508.127-.508.253-.127 1.141.507.76.254.127.507.254.761.254 0 0 1.015-.253 1.522-.507 0 0-.127 0 0-.254v.127c.254 0 0-.254.254-.254.38.254.888 0 1.141-.253.127 0 .254.127.38.253.128 0 .128-.126.381 0v-.38h.254v.254c0 .126 0 0 .254 0V.888c.253.127.38 0 .507.127 0 .253-.127.38-.38.38 0 .127.126.127.253.254-.127.127-.254.254-.254.38 0 0 .254.254.38.254 0 0 .255-.38.381-.254v-.126s-.253 0-.38-.127c0-.254.254-.254.38-.254l.254.254c.254-.127.508 0 .634 0 0 .253-.38.253-.38.38 0 .254.507.127.507.38.38-.126.507-.253.888 0-.254.128-.761.381-.888 0 0 0 0 .254-.127.381 0 .254.254.508.635.508.126-.127.507-.508.253-.635.38 0 .127-.38.254-.507-.254 0 0-.38-.254-.38.38-.254 0-.761 0-1.015h.254V.634c.127 0 .38-.38.634-.253v.38c0 .127.38 0 .507.127 0 .127 0 .254-.126.38h.253c-.127.254 0 .38.127.508.127 0 .127 0 .254-.254 0-.127-.254-.127-.127-.38 0 0 0 .126.127.253h.38v-.38h-.38V.76c-.254.127-.635-.127-.508-.507h.254s.634.253.634.634c0-.254.38-.127.508 0V.76c.507 0 .634.507 1.141.634-.127.508.254.634.634.634 0-.126 0-.38.254-.38-.127 0-.38-.254-.38-.507h1.395c-.254.253-.254 1.014-.761 1.141 0 .507-.508.634-.254 1.142 0 .126-.127 0-.254.253.127.127.254.508 0 .634v.127c.254-.253.635-.127.761-.634 0-.127-.126 0-.253 0 0-.254 0-.38.253-.507h.254v-.38c-.254 0-.38.253-.634.253 0 0 0-.254-.127-.254l1.015.761Zm2.41-1.902s-.127.253-.381.253c-.127.38-.38.508-.634.761.127.254 0 .508 0 .888h.254c0-.253.253-.253.38-.38v-.254h-.127c.254 0 0-.507.38-.507 0 0 0 .127.127.253.254 0 .254-.253.381-.38-.127-.254 0-.254-.38-.507v-.127ZM33.864 5.2s0-.253.254-.38v.38h.254c0-.38 0-.38.254-.634h.253c0-.254.381-.38.254-.634.254-.127.508 0 .888 0-.254 0-.38-.127-.127-.38-.254 0 0-.127-.254-.127h-.253v-.38c.38-.128 0-.635-.127-.889 0-.127.254 0 .254-.127-.508 0-.508.38-1.015.38 0 .255.127.635-.127.762 0 .38 0 .507.127.76h-.254c0 .381-.253.508 0 .762l-.38.507ZM71.03 2.664h-.38v.253c-.127-.127-.127 0-.254 0 0 .127.127 0 0 .254.38 0 .76.38.76.254v-.127h.254c0-.127.127 0 .127-.127s.254-.634-.253-.634c0 .127.253.127 0 .253 0 0-.254-.126-.254-.38v.254Zm4.693.38s-.507.507-.507 1.015c.253 0 .253.253.507.253.127 0 .254-.126.38-.38 0 0-.253.127-.253 0 .127 0 0-.254.127-.38h.38-.254c.254 0 .254-.508.508-.254 0-.127-.254-.254-.254-.508-.38 0-.38.508-.634.38v-.126Zm-22.45.127s.254 0 .254-.254h-.254v.254ZM69 3.425s.254 0 .254-.254H69v.254Zm-28.918.507s.127.254.253 0c0 0 0-.254.127-.38v-.254c-.253 0-.38 0-.507.253 0 0 .38.127.127.254v.127Zm37.036.254s.254 0 .254.126c-.127.127-.508 0-.508.254.127 0 0-.127.127-.127.38.254 1.015.254 1.395.508 0 0 0-.254.254-.254.508.127.888.254 1.395.38.127-.253.508-.38.634-.634 0 0-.253-.253 0-.38-.253 0-.38-.38-.634-.127-.253 0-.634.38-1.014.254 0-.254-.127-.254 0-.38-.127 0 0-.128-.254 0 0 0 0 .253-.254.253-.127 0-.253-.254-.38-.38-.254.507-.761.126-.888.633l-.127-.126Zm-16.489.253s.127.508.38.634c.255-.126.508 0 .635-.253h-.38c0-.38.38-.38.634-.127 0-.254 0-.38-.127-.38-.254.126-.508 0-.38-.254-.127 0-.254-.127-.381-.254-.127.127 0 .761-.254.634h-.127Zm4.82-.634s0 .254-.254.254c0 .253 0 .888.508.888 0-.38 0-.508-.127-.635h.127v.254c.254 0 0-.507.254-.38-.254-.127 0-.254 0-.38 0 .126-.254 0-.381 0h-.127Zm-23.338.38s.38 0 .508-.253c-.127-.254-.635 0-.508.254Zm24.987.381s-.254 0-.38.254c.38 0 .253.38.38.38s.127-.253.38-.38c-.126 0-.253 0-.253-.127v-.38c-.254 0 0-.127-.254-.254v.634l.127-.127Zm2.79-.254s0-.126-.253 0c0 .127 0 .254-.127.254 0 0-.254.254-.254.634h.254c.127-.253.38-.253.507-.507-.127 0 0 .127-.253 0v-.254c.253 0 .38-.253.507 0-.127-.507.507-.127.507-.507-.38-.127-.76 0-.76.38h-.128Zm-33.992 0h.38c0-.126-.38-.253-.38 0Zm1.903 0h.253V4.06s-.253 0-.253.127v.126Zm28.411 0h.38c-.126 0-.507 0-.507.254l.127-.254Zm4.947 0s0 .254-.254.254c.254 0 .254.507.38.38-.253 0 0-.126 0-.253 0 0-.126 0-.253-.254v-.253l.127.126Zm3.932.254s0-.127.253 0c0-.127 0 0-.126-.127 0 0-.127.38 0 .254l-.127-.127Zm5.961.38h.254c0 .254 0 .381.253.381.254-.38.508-.76.635-1.015-.381 0-.508.381-.761.508h-.381v.127Zm-5.961.635s-.38-.127-.508 0c.508.253.888.76 1.269 1.015 0-.254 0-.127.127-.381.126 0 .38.127.38.38-.127 0-.127.127-.254 0 .254.381.761 0 .761-.507l.254-.253c-.254-.127-.507-.254-.634-.508.127-.254.127-.634.507-.634v-.254h-.507c-.254.508-.888.761-1.522.888l.127.254ZM43.759 5.2s.38.253.761.38v-.508s-.507 0-.254-.253h-.126c0 .253-.508 0-.508.38h.127Zm1.015.634s.127-.254.38-.254c0-.254-.253-.254-.38-.508 0 .254.253.508 0 .761Zm37.163 0s.127-.381.38-.254v-.254c-.253 0-.507.38-.38.508Zm-32.47 0h.253-.127c.127 0 .254 0 .381-.254-.254 0-.634.253-.507.507v-.253Zm15.347-.381s.507.127.507 0c-.253 0-.38-.127-.507 0Zm-30.06.888s.253-.38.127-.507c0 .126-.254.38-.127.507Zm46.93 0s.38 0 .507.127V5.96h-.254c0 .127-.127.254-.254.38Zm-21.056 0s0 .127.254 0v-.254l-.254.254Zm-10.527.38s0 .254.254.127c0-.253.253 0 .253-.127v-.126c-.253 0-.38 0-.507.126Zm0 1.142s.38-.127.634 0c0-.127 0-.254.127-.38h-.38v.253s-.381.127-.508 0c0 .254-.127 0-.127.127h.254Zm8.244 0V7.61h-.127v.254h.127Zm36.402-6.722s.635.761 1.142.888v.507c0 .254.507-.126.634-.253h.127c.253 0 .634-.508.888-.634 0 0 .507 0 .253-.38.254 0 0-.128.127-.255.127 0 0 .254.254 0v-.38h.254s.38 0 .38.254c0 0 0-.127.127-.127.507.507-.38.76-.634 1.014 0 0 .253 0 .38.254 0 0 .127-.127.38 0 .128.38.381.634 0 1.015 0 .253.128.253.128.38.253-.253.634-.127 1.014-.253 0 .253.634.253.381.634-.381 0-.381.38-.254.634-.254.254-.76.254-.888.634-.507-.254-.634.38-1.014.254v.127c.253 0 .38.253.38.38 0 0 0-.127.254 0 0-.253-.127-.507 0-.634.38 0 .38.254.634.254-.254 0 .254.634.254.38 0 .127 0 .254.126.38 0 0-.126 0-.253.128 0 0 .253 0 0 .126.761-.126 1.014-.76 1.649-1.141-.254 0-.127-.38-.381-.634.254 0 .381-.127.634-.38 0 .38.254.633.508.887 0 .38-.381.634-.634.38-.127.127-.001.381-.381.381 0 .507-.507.507-.761.888 0 .254.38.254.254 0 .253 0 .634.254.888 0 0 .507 0 .38-.254.76-.381-.253-.508 0-.761.255-.254 0-.127-.254-.254-.38-.127 0 0 .253-.38.253v-.508h-.38c-.128-.253-.508-.38-.762-.38v-.38c-.38-.254-.76-.381-1.015-.762-.126 0 0 .127-.38 0 0-.253-.508 0-.761-.126.38.634-1.015.76-1.395.887v-.253s-.254.507-.508.38c0 .254-.253.254-.253.508h-.254c-.254.253 0 .38 0 .634-.127 0-.634 0-.888-.127-.127 0-.38-.38-.634-.254v-.253s-.38.253-.634 0l-.508.507c-.253 0-.253-.254-.38-.38h.507c.254-.127 0-.254 0-.381-.38 0-.254 0-.507.127v-.254h.254c0-.254.253-.254 0-.38 0-.127.253 0 .38 0 0 0-.254-.254 0-.254-.38-.254-1.015.38-.634.76h-1.269c0-.506-.887 0-1.014-.253 0-.253.254-.253 0-.38.254-.38.888 0 .888-.38h-.254c0-.128 0-.381-.127-.508 0 0-.507.254-.634 0-.127 0 0 .38-.38.38v-.38s.253-.254.38 0c0-.254-.127-.254 0-.507-.254 0-.507 0-.761-.381h-.254c.254.254-.253.507-.253.888.507.254 1.395.507 1.141 1.268 0 0 0 .254.254.254v.254s.127-.254.38-.127c0 .253 0 .38.127.634h.254c0 .38-.761.127-.888.634-.254 0-.38-.38-.634-.254v-.38h-.254c0-.127.127-.38 0-.38v.253c-.127 0-.38.254-.507 0 0-.127 0-.127.127 0V7.23c-.254 0-.38.127-.508.254v-.127c0 .127-.253.127-.38.254 0 .254 0 .38.127.507v.38h-.508c.254-.253 0 0 0-.38-.127 0 0 .254-.253.254-.254 0-.127-.254-.254-.38-.127.253-.254 0-.634 0 .253-.508.634-.508.888-1.015h.634c-.38-.38.253-1.142.253-1.522-.253.253-.634-.127-.76 0 0-.127 0-.254-.254-.38.127-.255-.254-.381-.254-.635.254-.254.507-.127.761-.38 0-.254-.254-.254-.38-.508.253 0 .507.254.887.254.254-.38.888 0 .888.253h.254s0-.253.127-.253c-.38-.38.507-.888.634-.508.127 0 .254-.126.38-.253 0-.127-.38 0-.507-.127.254 0 0-.127 0-.254h.127s0-.127-.127-.253c-.254.126-.38.634-.76.507.126-.38.253-.634.38-1.015.253 0 0 .254 0 .38.38 0 .253-.38.38-.633h.254c.127 0-.127-.127 0-.254.254.127.38 0 .634.127-.254-.127.38-.127 0-.508h.254c.126 0 .253.254.253.508-.127 0-.38.253-.507.127 0 0 0 .253-.254.126v.508c.127 0 .38.253.634.253 0 .381.381.508.635.635 0 0 .253-.254 0-.254.38-.254.253.634 0 .38.127.508-.254.761-.38 1.142 0 .127.38.254.633.254 0 0 .127 0 0-.254.38 0 .38.254.761.127 0 0 0-.254.127-.254 0 0-.253 0-.127-.254.127 0 .254 0 .254-.253.254 0 .507-.254.634 0 .127 0 .127-.254.254-.38.507 0 .254-.762.888-.635v.254h-.254s.38 0 .254.38c-.127 0-.127.127-.38.127 0 0 0 .254.253.254-.38.253-.38.634-.634 1.015h-.634c0-.254-.127-.254 0-.381h-.38c0 .38.253.507.38 1.015.126 0 0-.38.253 0V5.2c.127 0 .254.127.254.254.254 0 .127-.254.38 0v-.38h.254s.254-.128.38-.128v-.253h.381s.254.126.127.38h-.38v.38c-.127.128-.381.254-.762.254.254 0 .761 0 1.015.38h-.254v.381c.127 0 0-.253.254 0v-.253h.38c0-.254-.126 0-.253-.508l.254-.253h-.254s.127-.254.254-.254c.253 0 .38.127.634.254 0 .253 0 .38-.254.38 0 .38.38 0 .634 0v-.38c.254 0 .508-.254.761-.254 0-.254.127-.507.127-.888-.254 0 0 .127-.254 0-.126 0 0 0 0-.254v-.634c0-.507-.76-.888-1.014-.38.254.253-.507.634-1.015.507 0-.507.254-.76.38-1.141h-.253v-.254c-.127-.127-.38-.254-.507-.38 0 0-.127 0-.254.126 0 0 0-.253-.254-.127v-.253c-.253.253 0-.38-.253-.254-.127 0 0-.127 0-.254h-.38c0-.253.126-.253.38-.253v.253c.253 0 .253-.126.38-.126-.254 0 0-.127 0-.38h.507s0 .38-.253.38l1.141.253ZM98.3 2.536s0-.126-.254-.126c0 .253.254.38.254.126Zm0 1.015h.253s0-.127-.253 0v.254-.254Zm-7.991 1.142s.254 0 .254-.254h-.254v.254Zm-3.17 1.014s.506.254.887.38v-.506c0 .126-.254 0-.507.126v-.253c0 .127-.254.253-.38.38v-.127Zm3.424.508s.253 0 .253-.254c0 0-.253 0-.253.254h.127-.127Zm3.044 0v.38h.634c-.127-.127-.127-.507-.507-.253l-.127-.127Zm-7.61 1.014s.253-.253 0-.253v.253Z" clip-rule="evenodd"/><path fill="#AF4ADC" fill-rule="evenodd" d="M49.847 1.395v-.127s.38-.127.38 0-.253 0-.253.254h-.254l.127-.127ZM31.202 2.79s0-.126.127-.126v.507c-.888.254-.507 1.015-.254 1.522 0 0 0 .127-.127.127 0 .127.254 0 .254 0 .127-.254.38 0 .634 0v.253c.38.38-.887.888 0 .888.38.508-.634.761-.887 1.142v.253c-.127 0-.381.254-.508.381.38 0 .254.507.508.634 0 .127-.127 0-.254.254 0 0 .253 0 .253.127-.126.253-.38 0-.634 0v.127h.254c-.127.253-.38 0-.634 0 0-.254-.254-.254-.254-.508h.254-.127s.254-.254 0-.254c0-.253.127-.253.254-.507h.38c-.38-.254-.253-.634-.634-.507-.38-.761.38-.761.634-1.142.254 0 .38 0 .38.254h.381c0-.254-.253-.761-.507-.634V5.2c.127 0 .127-.128.253-.128 0-.253-.253-.634-.253-.887-.127-.254-.508-.38-.761-.508.253-.127 0-.253-.127-.38.634-.761-.38-1.395-1.015-.634v-.508c.38 0 .38-.507.634-.38 0 0 .127-.254.254-.254h.38c.128 0-.253 0-.126-.254.127 0 .888 0 .634.38h-.254c-.127.255 0 .381-.253.381 0 .254.253.127.253.38.127 0 .127-.253.254-.38.254.38.507-.127.761 0h.127c-.254-.253 0-.507 0-.888.38 0 .38 0 .634.254 0 .508-.507.634-.76 1.015v.254l-.128.126Zm-24.86-.634s.634-.38.761 0c0 .127 0 0-.127.127.127.127.254.507.127.634 0 .127.254 0 .507 0 0 .127-.126.127-.253.254 0 0 .38 0 .38.254H7.23V3.17c-.254 0-.38.254-.508.127.254.507 1.015.507 1.142 0a.273.273 0 0 0-.254-.254c.254-.254.888-.127.888-.507h.38c.128 0 0-.127 0-.38.508 0 .762-.254.889-.635.253 0 .253.38.634.38 0-.253.253-.38.507-.38 0 .254.254.634 0 .634.254.254.38-.253.634-.38-.127 0 0-.38-.38-.254 0-.127 0-.38.253-.38.254 0 .635.253.888.126.254.254 0 .254 0 .635-.253 0 0 .126-.253.126v.254s-.127.127-.38.127c0 .127.253 0 .126.254-.127.253-.38.253-.634.38 0 .507-.254.634-.508.761 0 .507-.38.507-.38.888H9.64c.253 0 .38.127.507.254.254-.127.38-.508.761-.635 0 0-.127 0 0-.253.38.127.634 0 1.015 0 .38-.38 1.268-.508 1.649-.888 0 0-.254.127-.508 0 0-.254-.253-.38-.253-.761h.253s-.127 0 0-.254c.254.127.38 0 .761 0v-.253c.127 0 .254 0 .38.126.128 0 .128-.253 0-.253h-.38c-.127 0 0-.127.127-.254h-.254v-.38c.381 0 .381.253.761.253 0-.38-.38-.253-.38-.634.507.254 1.268-.507 1.522.254h-.254c.254.253-.507.127-.38.634-.254 0-.254-.254-.38 0 .38.254 0 .634-.381.634.254.38.38.761 1.015.761 0 .254.126.254.126.38h.508c0 .381-.508.254-.761.381.127.507.507.888 1.014.888 0 .634.38.634.38 1.268h-.38v.127h-.253s-.634-.507-.888-.76c-.508 0-.761.38-1.142.633.38.127.635.635.38 1.015-.253 0-.38 0-.38.127-.507-.254-.507.507-1.014.507-.127 0-.508 0-.634-.253 0 0 .253-.127 0-.254v-.38s-.381.126-.254-.254c.76.127 1.268 0 2.03.253.126 0 0 0 0-.253h-.255s0-.254.254-.127v-.254h-.634c0-.254.38-.254 0-.38 0 0 .127-.127.127-.38.507 0 .38-.508.888-.381 0 0-.127 0-.127-.254.254 0 .127 0 0-.254.38 0 .254-.38.38-.634-.253-.127-.634-.38-1.014-.127v.254c-.254 0 0 .761-.254.761h-.254s0 .254.254.254c-.254.634-1.015 1.268-1.776.887 0-.253.254-.126.254-.507.38 0 .254-.254.38-.38V4.82c-.507 0-.507.634-1.141.76v.381c0 .127 0 .254-.127.38-.38-.38-.507.255-1.141 0 0 0-.127.381-.254.508-.507 0-.761 0-1.142.127 0-.38.127-.888 0-1.268-.507 0-.76.38-1.268.126h.254s-.127 0 0-.253h-.254s-.127.253-.127.38h.127-.127c0 .38 0 .635.508.761v-.507h.634c.127 0 0-.254.127-.38.253.253 0 .507 0 .76-.508.127-.508.888-1.142.762v-.381s-.507 0-.254-.38c-.126.126-.38 0-.507 0-.254 0-.127.38-.507.253 0-.127 0-.253.126-.38 0 0-.253-.127-.126-.254-.127 0-.38 0-.254.38h-.507s.126-.126 0-.253c0 0 .253 0 .253-.254 0 0 0-.254-.253-.254 0-.126.253-.253 0-.38-.38 0-.888.634-1.142 0h-.254v.254l-.507.126c-.254-.126 0-.38-.38-.507 0 0-.127.254-.254.38-.127 0-.127 0-.127-.253 0 0 .254-.127.38 0v-.507c.254 0 .508-.127.762 0V4.82h.76c0-.254.254-.254.254-.634.254 0 .508-.254.38-.38.128 0 .508 0 .381-.381h.254s-.254-.508 0-.508v.254s0-.254.38-.254c0-.253 0-.507-.253-.76.253 0 .127-.254.127-.508-.254-.254-.127-.507-.254-.761h.254l.507 1.268Zm0 .254.254-.254s-.254 0-.254.254Zm3.805 1.268v.254h.254c0-.254.253-.507.253-.761 0-.127-.126 0-.253 0 0 0-.38.38-.38.634l.126-.127ZM7.23 5.834s.127.508.38.635v-.38s.127.126.38 0c0-.128 0-.128.255-.255 0-.38.253-.507.253-.887h-.253c0-.127.126-.254 0-.38-.761.253-1.015.633-1.142 1.267h.127Zm2.663-1.141s0 .254.254.254v-.38h-.254v.126Zm1.396.888s-.127 0-.127.253v-.253h.127ZM9.259 7.23s0-.508.38-.635c-.126-.126-.126 0-.253 0 0 0-.254-.253-.254-.507h-.634c0 .254.254.38 0 .508.127 0 .127 0 .127.38.507-.127.38 0 .634.254Zm.127.127s.127.253.38.253c0-.253 0-.38-.126-.507 0 .127-.254 0-.127.254h-.127Z" clip-rule="evenodd"/><path fill="#AF4ADC" fill-rule="evenodd" d="M16.489 4.82s-.254-.508-.254-1.015c0-.254-.253 0-.38 0 .127-.127.507 0 .507-.38v-.127h.38c-.38-.761.508-.888.635-1.522h.507s.127 0 0 .253h.508v-.126h.507c0 .38.507.253.634.507 0 .254-.254.507-.254.634.508.127.635-.507.888-.76-.127 0 0 0 0-.255.508-.126.634-.38 1.142-.38v.254c-.761 0-.761.887-1.268 1.268.253 0 .253.38.507.507-.127.38.253.127.253.508.254 0 .381-.254.381-.38h.254s0-.128.253-.255c.127 0 .254 0 .254.381-.254.254-.634.127-.888.38.38 0 .508.508 1.015.508 0 .127-.634 0-.888.38h-.38c0-.126 0-.127.253-.127V4.82h-.38c-.127 0 0 0 0 .253-.508.254-1.142.381-1.396.888.254.127.761 0 1.015.254 0 .254 0 .38-.253.38-.254 0-.381-.38-.762-.38h-.126v-.254h-.254c0-.126 0-.253-.254-.253 0 .253-.253.507-.38.76h-.38c.126-.253.253-.253.253-.633-.254-.254-.634-.635-1.015-.761 0 .253-.38.126-.634 0V4.82Zm3.298-.38s.127.253.38.38c0 0 .127-.127.127-.38h-.507c0-.254.254 0 .254-.381 0-.127-.254-.254-.254-.508.253 0 0-.76 0-.887-.127 0-.254.126-.38.253V2.79s-.762.761-.508 1.269c.38.127.76 0 1.015.253l-.127.127Zm109.967-2.03v.253c.127 0 0-.38.381-.38v.507h-.254s.507 0 .634.127c0 0 0-.254.127-.254-.254 0-.38-.253-.38-.634 0 0 .253 0 .253.254 0 0 .254-.127.254-.254v.254s0 .254.254.254c0 0 0-.254.253-.254h.381c0 .254-.381 0-.508.254.127 0 .381 0 .381.38.254-.127.888.254.888.634h.507v-.253c0-.127 0 0-.254 0 .254-.38-.507-.254-.253-.635.507 0 .888-.38 1.268-.126h-.127c0 .253.508 0 .508.38h.38c0-.127-.127-.127 0-.38h.507c-.126 0-.253.253-.507.38.507.127.507-.634 1.142-.38 0 .38.253.634.507 1.014-.127.254-.254.888 0 1.142.127-.38.634-.127.888 0 .254-.127.507-.127.634-.254 0 0-.127 0 0-.254 0-.126.254 0 .254-.38.38 0 .38.254.38.507h.381c-.127.508.634.127.634.508.507 0 .38-.254.254-.635.126 0 .253 0 .253-.126-.127-.254 0-.508-.253-.635 0-.38.507 0 .634 0v.381c0-.127.253-.254.38 0 .127 0 .127-.254.381-.254 0 .508.507.761.254 1.269 0 .127.253 0 .38.127v.38c0 .127.38-.127.38 0 .127-.254.381-.127.635-.38 0-.127.38-.381.507-.127 0 0 .127-.254.381-.254.38.254.887.38 1.141 0-.254-.127-.507.127-.634 0 0-.254 0-.254.127-.38.38.253.507.38.888.38 0 .254 0 .38.253.507h.381v.38c-.254 0-.127.255-.381.128 0 .127 0 .253-.253.253v-.253c.253.507-.254.76-.888.634 0 0-.127-.254 0-.38 0 0-.254.126-.508 0h.127c-.127.126-.507 0-.634 0 .381.38.888.634 1.268 1.014.254 0 .508-.127.508-.507.507-.127.507-1.015 1.268-.888 0-.254.254 0 .254 0 0 .127.253.254.507.254v.126c-.254 0-.507.127-.888.254.127.254 0 .38 0 .634 0 .127 0 .127.127.254.127 0 0 0 0-.254.127 0 .254.254.381.38 0-.126-.127-.253 0-.507h.253c0-.126-.127 0 0-.253.254 0 .508-.254.761-.254v-.38c.508.126 1.269.253 1.396-.381-.254 0-.381-.127-.381-.507.254-.127.507-.254.634-.635.254.254.254-.253.508-.253 0 .38.126.76.507.76 0 0 0-.126.254 0V4.44c.126.127 0 .38.126.634.254 0 .635 0 .888.38.254 0 .508-.38.888-.253 0 0 .254-.127.254-.253 0-.127.253 0 .38 0V4.82c.127.127.254.127.508 0-.127.634-1.142.38-1.396.888.508 0 .635.38.635.76-.254-.253 0 .127-.127.127.253.508.761.254.888 0v-.507s-.254 0-.127-.254h-.254c0-.126-.127-.126 0-.38h.127c.127 0 .127.254.254.254.126-.254 0-1.142.761-.888 0 0 0 .127-.127.127 0 .253.507 0 .507.38-.127 0-.38.127-.38.38.127.254.507 0 .634 0 0 0-.127 0 0-.253.254 0 .507.127.507 0h.254c0 .127.127.254 0 .254h.127s.253-.127.253-.381h.508v.127s.634-.38.634 0c.127 0 0-.127.127-.254h.253s0-.253.254-.127c0 0-.254.254 0 .254-.127 0-.254.127-.507.254v.38-.253c-.127 0 0 .253-.254.253.127.254.254 0 .254.38 0 0 .127-.126.253 0 .254-.38.508-.76.888-.887h.254s.127-.254 0-.254h.254c0 .127.38.254 0 .38 0 0 0-.126.253-.38h.127v-.38h.254v.38s.127 0 .38-.253c.381 0 1.015-.381 1.142.253h.254c0 .508-.254.508-.381 1.015.381.254.507.76 1.015.634 0 0 .253.254.38.254 0 .38.761.127 1.015.38 0-.38.634.254.634.508 0 0-.127 0-.254.253h-.253c-.127 0 0 .127 0 0 0 .254.253.254.507.508-.507 0-.507.38-.634.634 0 .127 0 .253.254.38-.254.254-.761-.127-.888-.253-.254.253-.381 0-.761 0-.127-.254-.634-.38-.888-.635.254-.126-.254-.507-.381-.634-.253.254-.634.38-.888.508-.507.253-1.268.253-1.775.253v.127h-1.269c0-.38-.507-.254-.634.254-.253 0-.38-.127-.761-.127 0-.127 0-.507.254-.634V8.37h-.381c0-.127-.126-.127 0-.254-.253 0-.253.127-.253.38-.254-.253-.381.508 0 .635 0 .254-.254-.127-.254 0h-.254c0-.38-.38-.38-.38-.634-.254-.127-.254.127-.508.254-.126 0-.126 0 0-.127-.507 0-.253.38-.507.507-.127 0-.254-.127-.38-.127 0-.38-.254-.253-.254-.634-.507.254-.888.38-1.268.761h-.508v-.888h.127v.127c.254 0 .381-.254.507 0 .127 0 .254-.38.508-.254 0-.253-.127-.253-.381-.507-1.014 0-1.268.507-1.775 1.268 0-.253-.254 0-.381 0v.254c-.254 0-.254-.254-.634-.254 0 0 0-.253.254-.38-.254 0 0 0 0-.254-.508.254-.888.254-1.269.508 0-.127.127 0 .127-.254-.127 0-.254-.127-.254-.38 0 0 0 .126-.127 0 .254.38-.38.634-.507.38-.507 0-1.395.507-1.649.127-.127.127-.634.38-1.014.253.126-.126.126-.253 0-.634.507-.127.887-.38 1.522-.38 0-.127-.254 0-.254-.127V7.23c-.254 0-.634.253-.634.38 0 0-.381 0-.381-.254-.253 0-.761.127-1.141.508 0 0 0 .76-.508.507 0 .127-.126.254-.126.38-.635 0-.761-.38-.888-.634h.126c.127.127.254.38.508.38-.254-.253.127 0 .254-.126 0 0 0-.38.126-.38 0 0-.253-.254-.38-.254s-.761.507-.761.634h-.634c0-.507.634-.507.634-1.015 0 0-.634.38-.888.508-.127.38-.634.507-.888.888h-.634v.126s-.254-.253-.381-.253c.254-.254.508-.761.888-.761v-.127s-1.268.634-1.522.127h-.253.126c0 .253-.38 0-.507 0 .127 0 0-.127 0-.38h.254c-.508-.381-.888-.128-1.395 0 0 .38-.254.507-.127 1.014-.254 0-.381.254-.634 0 0-.634.507-1.268.507-1.903 0-.126-.254-.126-.254-.253-.253.253-.761.253-.888.634 0 .127.254.127.254.38-.254.254-.888.127-1.141.508-.127 0-.254.253-.254.253v.127h.254v.38h-.381c.254-.253-.254-.253-.381-.253v.254s0-.254-.253-.127c.253.127 0 0-.254 0V7.99c-.254 0 0 .38-.38.38.126-.254.253-.507.507-.76h-.507v.38c-.254 0-.254 0-.254.253 0-.38-.507-.253-.761-.253 0-.127.254 0 .127-.38 0-.128 0 0-.254 0-.127-.255 0-.635-.254-.635-.126 0-.126-.38 0-.507 0-.254-.253-.254 0-.381-.126-.127-.507-.254-.507-.507-.38.253-.507.76-.761 1.014.127.254.507.508.254.761-.127 0-.254 0-.381-.126-.253 0-.38.253-.253.634.126-.127.253 0 .253-.38h.381c0 .253.38 0 .38.126 0-.127-.127 0 0-.254.127 0 .381-.253.508-.126v.507s-.254.127-.381 0v-.254c-.254 0-.254 0-.254.254 0 0-.126 0-.126-.127 0 0 0 .127-.254 0 0 .127.127 0 0 .254h-.888v.127-.127h-.127c0 .127.127 0 0 .253 0 0-.254-.126-.38-.253-.127 0-.254.127-.508.127.127 0 .127-.254.381-.254h-.254c.127-.127 0-.507 0-.634-.38 0-.38.253-.634.253v.38c0 .128 0 .255-.254.255v-.254s-.38 0-.38.254h-.508v-.254.127s-.126-.127-.38-.254l.254-.254V7.23s0 .126-.127 0v.253c-.508 0-.761-.127-1.142 0-.127 0-.253 0-.253-.253 0-.254.253-.254.38-.508-.127 0 0 0 0-.253.381 0 .634 0 .634-.381h.381v-.38c.253 0 .253.253.507.253.254-.253.634 0 .634.254.254 0 .381.254.508.38.253-.253.507-.507.888-.38-.254-.127 0-.38 0-.634.253 0 .38-.634.38-.888v.127h-.254c0-.38 0-.761-.253-.888h-.254s-.127 0-.127.253c-.254 0-.254 0-.254-.253 0 0 .127.127.254 0h-.254c.254-.38-.253-.634 0-.888-.253 0-.253-.38-.507-.38v-.635h-.38c0 .127.126 0 0 .254-.254 0-.381 0-.635.127 0 0-.126-.254 0-.38h-.38c0-.635.634-1.015 1.268-.635h.254c0 .254-.254.127-.381.254 0 .253.381.253.508.38.127-.38.634.127.761-.38.127 0 .253 0 .38.253V1.65c.381 0 .508 0 1.015-.127 0 .127-.254.254-.38.38v.127c.253-.38.634 0 1.014 0l-.761.38Zm-2.156 0s.254.76.634.634c0-.254.381-.127.508-.38 0-.254-.381-.381-.508-.381 0 0 .127.254 0 .254 0 0-.254 0-.254-.127-.126 0 0 .127-.253 0 0 .127.253 0 .253.253h-.253V2.41h-.127Zm1.903 1.014s-.127-.507.126-.634v-.253h-.253c-.127.507-.761.887-.888 1.395.38 0 .38-.508 1.015-.508Zm1.902 0c.254 0 .507 0 .507-.253-.126 0-.38 0-.38.127l-.127.126Zm1.903 2.537v-.38h-.254c0-.508 0-.761-.381-1.269h.254-.254s-.126 0-.126-.253c.126 0 .38-.127.38-.508h-.38c0 .127-.127.127 0 .38-.635.128-.888.635-1.649.635 0 .254-.381.38-.381.761.381.127.508.38 1.015.38.127 0 0 0 0-.253h.254c0-.38.253-.127.38 0 0-.254 0-.38.127-.38.254.253.761 0 .761.507-.254.507-1.015.38-1.142.888 0 0 0 .76.254 1.014.254 0 0 0 0-.253h.254v-.38s.507 0 .634-.255c0-.126-.254 0-.127-.253.127 0 0-.254.127-.254 0 .127 0 0 .254 0v-.127ZM149.16 4.44h.381-.254v.254l-.127-.254Zm-14.079.761s.127-.253.381-.253c0-.127 0-.381-.127-.381 0 .254-.38.38-.254.634Zm4.313.634s.761-.887 1.395-1.141v-.127c-.634 0-1.522.634-1.903.634.254.127.381.508.508.634Zm8.625-1.141s.38.127.507 0c0-.254-.38 0-.507 0Zm9.893.634s.38-.38.254-.38c0 .253-.254.126-.254.38Zm-3.932-.254.254-.127h-.381l.127.127Zm-3.425.254s-.253 0-.634-.254c0 .508.381.508.254.888.254 0 .254 0 .38-.127v-.38s-.253-.127 0-.127Zm6.089.634v-.253s.126.38 0 .253Zm-15.094.508s.254-.127.254-.381h.253v-.254c0 .254-.253.254-.507.254 0 .127-.254.254 0 .38-.254.254-.761 0-.888.381.254.127.634 0 .761.38 0 0-.127 0-.253.254h.253s-.253.127 0 .127c0 0 0-.38.254-.507h.253c0-.254.381-.254.508-.38h-.254v-.128s0 .127.127.127c.127-.38-.38-.253 0-.507-.127 0-.38.38-.634.127l-.127.127Zm-2.41-.127c-.634 0-1.015.253-1.015.634.381-.127.508.127.508.38.127 0 .38-.253.253-.634.127 0 .127-.253.254 0 0-.253.254-.253.127-.38-.254 0 0 .253-.254.253-.127 0 0-.253 0-.253h.127Zm8.625.38s.761.254.888.634c-.254 0-.127.38-.381.508.254 0 .381.127.508 0V7.61c.127 0 .507 0 .38-.127 0 0 .127-.253.254-.38-.127-.127-.381.127-.507 0v-.254s.126-.761 0-.634c-.254 0-.508.507-.761.507h-.381Zm-11.288.127v.254c.126 0 .253 0 .253-.254h-.127v.127l-.126-.127Zm-9.513.127s0 .254.253.254c-.126-.127.127-.254 0-.38h-.38l.127.126Zm26.635 0s0-.254-.253-.254c0 .254 0 .508-.254.38v.254c0-.126.254 0 .254 0 0-.126.634-.253.507-.38 0 0-.127.127-.254.127v-.127Zm-7.356.634h.38c0-.254.254-.254.254-.38h-.38c0 .253-.381.253-.508.38 0 0 0 .127.127.127l.127-.127Zm6.469.507s.126-.253.126-.507h-.38c0 .254.254 0 .254.127-.127 0-.254 0-.381.127h.381v.253Zm-5.328 0h.127c0-.126.127 0 .127-.253-.127 0 0 .127-.254.127v.126Zm7.991.508s.127-.254 0-.38c-.253 0-.253.38 0 .38Z" clip-rule="evenodd"/><path fill="#AF4ADC" fill-rule="evenodd" d="M24.733 7.483s-.38.254-.634.127c.254 0 .254-.634.508-.507v-.507c-.127 0-.761 0-.761.253h-.381c-.254.508.254 1.269-.38 1.395 0-.126-.254-.253 0-.253-.254.253-.635 0-.762-.127 0-.254.254 0 .254-.38 0-.381-.507 0-.634-.127 0 .126-.254.38-.507.253 0-.253 0-.38.253-.634 0 0-.127 0-.38.127h-.127v-.127c-.254.254-1.015 0-1.142.634-.126 0 0-.253-.127-.253.381 0 .508-.381.762-.508 0-.253 0-.634.507-.507.127-.127 0-.254 0-.507.127-.888 1.142-.762 1.522-1.269V4.06c.254.253.634 0 1.015.127v.634c-.254.253-1.015 0-1.142.634 0 0 .127-.127.127 0-.254 0-.634 0-.888.254 0 0 .254.127.38.253v.254c-.507 0-.634 0-.887-.127-.127.254 0 .254.253.508.127 0 0-.127.38 0 0 0 0 .253-.126.126.254.254.888.254 1.142 0 0-.126-.127 0 0-.253.253 0 .634.38.38.253.127.254 0-.126.254 0 0 0 0-.253-.127-.38.254 0 0-.254.507-.254 0-.127 0-.38.127-.507-.127 0-.253-.254-.253-.508h.253c0-.126-.253 0-.253-.126.253-.38.634-.254.887 0 0 0-.253-.508-.38-.635v.254h-.254c-.253-.254-.253-.507-.253-.888l-.127-.127h-.38c-.255-.507.507-.253.507-.634.126 0 .38 0 .38.254.254 0 .254-.38.634-.38 0-.254 0-.381.254-.381v1.395c.507-.76 1.268 0 2.03 0 0 0 .126-.254.253-.254-.127 0-.254-.253-.507-.253 0-.127 0-.254.126-.38h.254c.127-.254.254-.508.507-.254 0 0 0 .253-.253.253 0 .38.127.38.127.634 0-.253.507-.126.507-.507h.254v.254c.253.253.634 0 .76.38 0 .254-.253.38-.38.508.127.126.254-.127.38-.254 0 .127.254 0 .381 0 0 .254-.254.254-.127.507-.253 0-.38.38-.634.508.634.887-.507 1.522-.888 2.156v.127c0-.254.508 0 .634 0 0 .253-.253.38 0 .634-.38.127-.507-.254-.76-.254 0-.253 0-.38-.254-.507-.254 0-.254.254-.38 0 .126-.507-.508-.761-.508-1.015-.254 0 0 .254-.38.254v-.38c-.381 0-.381.253-.635.126v.254h-.507v-.254h-.254v.38s-.127 0-.253.254c0 .127.253 0 .38.254-.127.254-.507.761-.888.507 0-.253 0-.253.127-.38h.38V6.85l.127.634Zm3.425-2.79s.507 0 .634.127v-.254c-.127 0-.254-.127-.127-.254h-.38c.253 0 .127-.126.38-.126v-.254c-.253 0-.127-.254-.38-.254-.127.38 0 .634-.254 1.015h.127Zm-1.522.888c-.127 0-.127 0-.254.127h.254V5.58Zm-2.79 1.015s.38-.127.507 0c0-.254-.38 0-.508 0ZM2.283 3.17h.38c.127 0 0 0 0-.253h.127V2.79s-.126 0 0-.253c.381 0 .508 0 .761-.127.127 0 0 .254.127.254v-.127c.127-.127.38 0 .38.253v-.253c.381 0 0 .253.254.38-.38.127-.507.634-1.014.508 0 0 .127.126 0 .38.253 0 .507-.254.634-.38V3.17c.254.127.254-.254.634-.127 0 0 0 .507-.127.38v.254c0 .127.508.254.38.508.508 1.014-1.014 1.141-1.521 1.268v.254c-.254 0-.254.127-.38.127 0-.254.38-.254.253-.635-.38 0-.38.254-.761.254 0 0-.127 0-.127.254.127 0 .127 0 .127-.254v.254c.127 0 0-.127.254 0 0 0 0-.254.253-.254 0 .254-.127.507 0 .634 0 0 .254 0 .254.254-.127 0-.254 0-.507-.127a.969.969 0 0 0-.635-.254c0-.38 0-.888.38-.888 0-.253-.126-.253-.38-.38 0 0 .38-.38 0-.38h.254v-.254H2.03c0-.254.254-.127.508-.254 0 0-.127-.254 0-.254 0-.126-.254-.253-.508-.253l.254-.127Zm.507 1.142s0 .254.254.254v-.254H2.79Zm.888.761s-.127-.126-.127-.38c.127 0 .127-.127.254-.254-.254.254-.76 0-.76.38 0 0 .126.255.253 0v-.253h.38v.127h.38l-.38.38Zm-.76.127v-.38c-.381 0-.128.38 0 .38Zm-1.903-.38H.76c0-.127.254-.127.254-.381.127.127.38-.38.634-.38.254.634-.507.634-.761 1.014 0 0 .127 0 0 .254H.38c-.126 0 0-.254-.38-.254V4.82h.38c-.126.126 0 .253.254.253s.254-.127.38-.253Zm33.358-.508h.254v.127h-.381c0-.127.254-.127 0-.254l.127.127Zm74.58 1.776s.254 0 .254.254h-.254v-.254ZM2.03 6.215s0 .254-.254.254c0 0 0-.254.254-.254Zm82.444.888-1.142.38c0-.253 0-.507.127-.634.254 0 .38 0 .38-.254.38 0 .635.127.888.127 0 .38-.634 0-.634.508.127 0 0-.127.38 0v-.127Zm.634.634c.126 0 .126.254.253.38-.127 0-.254-.126-.254 0-.126 0 0-.253 0-.253-.253.253-.634 0-.76-.38h.38c0 .126.254.126.254.38 0 0 0-.127.127-.254v.127ZM4.566 8.879s.254 0 .254.126v-.253s.38-.38.38 0h-.253c0 .127.254.253.254.507-.38 0-.254-.254-.508-.38h-.127Zm-1.522 0h.254c-.254 0-.254 0-.254.126-.254-.126.127 0 0-.253v.127ZM20.04 1.522s-.253.38-.507.38v-.38h.507ZM5.962 2.03v.38c-.38.254-.508 0-.761 0 0-.38.507-.254.76-.38ZM136.73 3.17h.254v.128c-.127.126 0 .253 0 .507-.254 0-.507.254-.761 0 0 .254.38 0 .38.38h-.38c-.127-.126 0-.38-.254-.38.127-.127.381-.254.508-.38-.254 0 0-.127 0-.381l.253.127Zm10.528.889s.253-.127.38-.127v.38c-.634-.38-.38.888-1.141.635 0-.381-.635-.127-.888-.254v-.127c.126 0 .127-.254.38-.38 0 0 .127.253 0 .38 0 0 .127-.127.254 0-.127-.254.127-.507-.254-.76.127-.381.634-.381.888-.001 0 0 0-.254.254-.127-.127.127 0 .38 0 .508l.127-.127Z" clip-rule="evenodd"/><path fill="#AF4ADC" fill-rule="evenodd" d="M145.862 4.312s-.253-.127-.507 0v-.254h.634c.127.127-.127 0 0 .254h-.127ZM40.715 5.327h.38v.254c.254 0 0-.381.38-.254 0 .254 0 .507.254.634 0 .254-.38.254-.253.507 0 .127-.38 0-.508.254-.127 0-.253-.254-.507-.254 0-.507.38-.76.38-1.141h-.126ZM18.518 7.23h.254s.507.38.38.634h.254s.127-.254.254-.38c.127 0 .253 0 .38.126 0 .508-.38.508-.507.634v.38c-.254-.126-.38-.506-.761-.506 0-.254.254 0 .127-.127 0-.127-.127 0-.254 0 0-.254-.507-.254-.507-.508h.38c.127 0 0-.38 0-.38v.127Zm96.27 0v.253c.253.127.38-.254.507 0 0 .254-.254 0-.254.254 0 .253.254 0 .254.253-.254.127-.381-.38-.761 0-.127 0 .127-.126.254-.126 0 0-.254-.508 0-.38v-.255ZM1.65 7.23s-.254.38-.508.634H.635c0-.254.253-.38.38-.507.254 0 .127.126.38 0-.253 0 0-.508.254-.38v.253Zm21.054 1.141s.508.254.634.254c0 .634-.634.76-1.014.507.127-.253 0-.253 0-.634 0 0 .38 0 .38-.254v.127Z" clip-rule="evenodd"/></svg>